<svg version="1.1" id="Layer_1" xmlns="http://www.w3.org/2000/svg" xmlns:xlink="http://www.w3.org/1999/xlink" x="0px" y="0px"
	 width="100%" viewBox="0 0 1870 1748" enable-background="new 0 0 1870 1748" xml:space="preserve">
<path fill="#FFFFFF" opacity="1.000000" stroke="none" 
	d="
M1.000000,660.000000 
	C1.000000,440.000000 1.000000,220.500000 1.000000,1.000000 
	C624.333313,1.000000 1247.666626,1.000000 1871.000000,1.000000 
	C1871.000000,583.666687 1871.000000,1166.333374 1871.000000,1749.000000 
	C1247.666626,1749.000000 624.333313,1749.000000 1.000000,1749.000000 
	C1.000000,1386.166626 1.000000,1023.333313 1.000000,660.000000 
M1435.994507,1147.921631 
	C1475.475342,1186.929688 1515.090576,1225.803589 1554.281250,1265.100952 
	C1559.702026,1270.536377 1564.980469,1272.006470 1572.154785,1270.511108 
	C1572.757324,1257.502319 1573.511353,1244.420776 1573.937012,1231.328613 
	C1574.715820,1207.376709 1575.309204,1183.418457 1575.964233,1159.462402 
	C1576.641968,1134.674316 1577.349121,1109.886719 1577.953857,1085.096680 
	C1578.457764,1064.445801 1578.867188,1043.792358 1579.226318,1023.138428 
	C1579.281372,1019.977417 1580.067993,1018.506531 1583.695435,1018.222412 
	C1601.515015,1016.826904 1618.902832,1013.488281 1635.824585,1007.347595 
	C1658.514282,999.113770 1678.756470,987.009644 1696.619385,970.926025 
	C1711.623901,957.415894 1724.087646,941.820129 1733.842773,924.074280 
	C1747.383301,899.442261 1755.705444,873.083130 1755.812378,845.051819 
	C1756.258667,728.064392 1756.059937,611.074280 1755.921875,494.085297 
	C1755.905396,480.141693 1755.480835,466.127625 1753.999023,452.279602 
	C1752.862549,441.657013 1750.613892,430.972778 1747.366333,420.792450 
	C1739.468018,396.033722 1726.748657,373.921051 1709.066895,354.650543 
	C1686.699341,330.273102 1659.518433,313.637390 1628.053589,304.195923 
	C1609.723755,298.695801 1590.738281,296.981476 1571.526367,297.002655 
	C1443.038574,297.144440 1314.550415,297.078033 1186.062378,297.062225 
	C1183.801025,297.061951 1181.539673,296.850769 1178.990234,296.723633 
	C1178.990234,294.367584 1178.990479,292.554474 1178.990234,290.741333 
	C1178.986938,266.243622 1179.149414,241.744095 1178.882324,217.249252 
	C1178.799438,209.642258 1178.426758,201.835602 1176.645386,194.494354 
	C1173.446411,181.310577 1169.546021,168.248444 1165.095947,155.428055 
	C1158.179565,135.502335 1146.269287,118.429688 1132.366333,102.822357 
	C1119.282104,88.134117 1103.851562,76.210625 1086.545654,66.803307 
	C1061.720947,53.308975 1035.214844,45.144566 1006.929138,45.117413 
	C784.616699,44.903988 562.304016,44.977768 339.991455,45.091457 
	C332.565125,45.095253 325.070068,46.047634 317.726685,47.274277 
	C295.936432,50.914131 275.514984,58.217007 256.318298,69.443169 
	C235.215332,81.784157 217.446289,97.604744 203.129471,117.242676 
	C189.005249,136.616440 178.781403,157.844666 173.503906,181.445236 
	C170.308884,195.733185 168.093735,210.088852 168.081635,224.680252 
	C167.983963,342.502533 168.056671,460.324951 167.995514,578.147278 
	C167.985336,597.759521 170.150375,616.956116 175.598694,635.903381 
	C180.085526,651.506897 186.759277,666.005920 195.214828,679.672119 
	C210.471680,704.330811 230.689880,724.147217 255.491058,739.214233 
	C275.747742,751.520386 297.482635,759.892517 321.005768,763.316833 
	C327.572113,764.272705 334.173370,765.034607 340.781067,765.640442 
	C343.850006,765.921753 345.036133,767.028442 345.086700,770.264404 
	C345.232361,779.578674 345.848846,788.884521 346.101746,798.198547 
	C347.240784,840.147034 348.315521,882.097351 349.418365,924.046875 
	C350.175507,952.848816 350.911591,981.651306 351.727448,1010.451538 
	C351.885956,1016.046997 352.369537,1021.633240 352.770630,1028.354248 
	C354.584137,1027.039185 355.635712,1026.459839 356.462158,1025.650635 
	C380.602264,1002.012573 404.710846,978.342285 428.872162,954.726013 
	C429.933563,953.688477 431.444916,953.111328 432.884857,953.005798 
	C433.693573,954.459167 434.464081,955.935425 435.316620,957.362671 
	C460.303009,999.189697 491.942230,1035.472534 528.009216,1067.988037 
	C598.137024,1131.210327 678.645752,1177.422974 765.943115,1212.336548 
	C826.089355,1236.391357 888.069946,1254.126343 951.900757,1265.332886 
	C983.720764,1270.919434 1015.721436,1274.974976 1047.975830,1276.865601 
	C1063.143799,1277.754883 1078.327515,1278.449219 1093.513672,1278.919678 
	C1098.928589,1279.087402 1104.372803,1278.344116 1109.802368,1277.998291 
	C1130.636108,1276.671021 1151.509399,1275.777710 1172.292969,1273.895630 
	C1200.147339,1271.372925 1227.578979,1266.097290 1254.594727,1258.860840 
	C1299.101562,1246.939331 1341.209473,1229.622925 1378.970459,1202.723877 
	C1400.702515,1187.242920 1419.533813,1168.794556 1435.994507,1147.921631 
M423.005280,1369.366089 
	C420.173584,1358.241943 417.453735,1347.086548 414.361237,1336.035278 
	C413.996185,1334.730835 411.644958,1333.256836 410.115173,1333.137939 
	C405.311127,1332.764282 400.458344,1333.067993 395.626984,1332.976196 
	C392.394470,1332.914795 390.679138,1333.804321 389.870239,1337.481812 
	C386.778107,1351.539307 383.294098,1365.513794 379.783417,1379.475586 
	C374.402191,1400.876709 368.877960,1422.241943 363.364624,1443.817139 
	C362.906769,1443.249634 362.287689,1442.811035 362.139435,1442.248535 
	C360.162994,1434.749268 358.268921,1427.228516 356.321960,1419.721436 
	C352.873169,1406.423584 349.427460,1393.125000 345.933533,1379.838989 
	C342.318604,1366.093018 338.799500,1352.317749 334.847412,1338.668701 
	C334.212677,1336.476562 331.736206,1333.560669 329.762695,1333.259277 
	C324.714142,1332.487671 319.462891,1332.848267 314.305145,1333.060303 
	C311.300751,1333.183716 309.671997,1334.231079 310.859344,1338.090820 
	C314.182281,1348.892700 317.026764,1359.843262 319.989136,1370.754395 
	C326.381927,1394.300903 332.699158,1417.867798 339.108643,1441.409668 
	C343.011536,1455.744873 347.077942,1470.035889 350.963409,1484.375732 
	C352.072571,1488.469238 354.235962,1490.501465 358.700256,1490.049927 
	C361.834747,1489.733032 365.050842,1489.744385 368.187866,1490.048706 
	C372.445435,1490.461548 374.203033,1488.786499 375.187012,1484.588501 
	C379.244598,1467.277710 383.742981,1450.070801 387.986725,1432.802979 
	C392.692383,1413.655396 397.297028,1394.482788 401.945648,1375.321167 
	C404.503326,1381.648560 406.102509,1387.992798 407.711334,1394.334473 
	C411.488159,1409.221924 415.251221,1424.112915 419.054230,1438.993652 
	C423.015991,1454.495728 427.058655,1469.977173 430.970886,1485.491577 
	C431.834381,1488.915771 433.567902,1490.396118 437.240387,1490.061523 
	C440.876678,1489.730103 444.620483,1489.593018 448.220734,1490.081421 
	C453.643982,1490.817383 455.107269,1487.586060 455.968018,1483.401123 
	C456.165649,1482.440186 456.000214,1481.395020 456.252686,1480.456177 
	C462.672729,1456.581787 469.125793,1432.716187 475.573944,1408.849365 
	C481.854279,1385.604004 488.138428,1362.359619 494.413788,1339.112915 
	C495.536652,1334.953369 494.305664,1333.123779 490.129120,1333.024414 
	C485.631897,1332.917480 481.107025,1332.741577 476.642578,1333.138916 
	C475.039185,1333.281616 472.704468,1334.689941 472.206940,1336.064697 
	C470.453400,1340.909546 469.324890,1345.983398 468.008148,1350.983276 
	C461.998016,1373.803955 456.003723,1396.628784 450.005402,1419.452637 
	C447.888367,1427.507935 445.775970,1435.564575 443.661469,1443.620605 
	C440.546967,1435.513916 438.188202,1427.495972 436.029480,1419.424438 
	C431.646454,1403.036499 427.371521,1386.619629 423.005280,1369.366089 
M1386.052368,1457.312744 
	C1390.369507,1466.386475 1394.774780,1475.419800 1398.960083,1484.553955 
	C1400.607300,1488.148926 1402.709351,1490.362183 1407.024414,1490.045776 
	C1410.834839,1489.766235 1414.682495,1490.027954 1418.512695,1489.976318 
	C1422.955078,1489.916504 1424.237305,1488.121582 1422.504761,1484.046509 
	C1420.607788,1479.584106 1418.495239,1475.209717 1416.376709,1470.845581 
	C1408.597900,1454.822021 1400.812500,1438.801392 1392.937744,1422.824951 
	C1391.644653,1420.201660 1391.429688,1418.589966 1394.917358,1417.899292 
	C1396.942017,1417.498291 1398.988159,1416.681396 1400.761108,1415.613770 
	C1421.986328,1402.836548 1425.210693,1383.847168 1420.325684,1362.955322 
	C1416.006836,1344.484863 1397.736206,1333.003784 1379.829346,1333.000244 
	C1360.674805,1332.996460 1341.519287,1333.112305 1322.366455,1332.933960 
	C1316.161621,1332.876221 1313.991577,1332.348755 1313.997803,1341.390015 
	C1314.030029,1388.193604 1314.012695,1434.997314 1314.012695,1481.800903 
	C1314.012695,1482.800293 1313.921143,1483.809937 1314.031616,1484.796997 
	C1314.397949,1488.068604 1315.552734,1490.351807 1319.565918,1490.045898 
	C1323.208984,1489.768066 1326.890137,1489.998169 1330.554443,1489.984741 
	C1336.488892,1489.963257 1336.996216,1489.444946 1336.998413,1483.305908 
	C1337.005371,1464.317993 1337.000854,1445.329956 1337.000854,1426.342041 
	C1337.000854,1424.596924 1337.000854,1422.851807 1337.000854,1420.995117 
	C1347.400879,1420.995117 1357.058716,1420.919067 1366.712280,1421.086182 
	C1367.994507,1421.108521 1369.920044,1422.048462 1370.423584,1423.101196 
	C1375.726562,1434.186523 1380.800659,1445.381226 1386.052368,1457.312744 
M550.007080,1354.500977 
	C550.007080,1396.828857 550.006897,1439.156860 550.007935,1481.484741 
	C550.007996,1482.817871 549.800110,1484.197632 550.071655,1485.474365 
	C550.649292,1488.189697 551.693115,1490.333984 555.263977,1490.054932 
	C559.073486,1489.757202 562.938660,1489.779907 566.753723,1490.040283 
	C571.593079,1490.370605 573.110596,1488.263550 573.069336,1483.592651 
	C572.899841,1464.429932 572.998596,1445.264893 572.998596,1426.100708 
	C572.998596,1424.496948 572.998535,1422.893188 572.998535,1421.302734 
	C594.625977,1421.302734 615.688904,1421.302734 636.688599,1421.302734 
	C636.829712,1421.919434 636.963196,1422.231201 636.963501,1422.543091 
	C636.982605,1440.540527 636.979675,1458.537842 637.003357,1476.535278 
	C637.023193,1491.653687 635.385742,1489.950195 650.678528,1489.984497 
	C659.362488,1490.004028 659.991455,1489.339844 659.991638,1480.360474 
	C659.992493,1435.866211 659.992065,1391.371948 659.992065,1346.877686 
	C659.992065,1344.211304 660.050293,1341.543457 659.978149,1338.879028 
	C659.876282,1335.115479 658.645508,1332.594849 654.108704,1332.940186 
	C650.297974,1333.230347 646.425781,1333.255859 642.620483,1332.932251 
	C638.305725,1332.565063 636.841309,1333.954346 636.898376,1338.469360 
	C637.138489,1357.463867 636.999878,1376.463135 636.999878,1395.460693 
	C636.999878,1397.225342 636.999878,1398.989990 636.999878,1400.672119 
	C615.327881,1400.672119 594.264465,1400.672119 572.999329,1400.672119 
	C572.999329,1399.527344 572.999390,1398.710327 572.999390,1397.893311 
	C572.999084,1378.229248 572.933838,1358.564697 573.050232,1338.901367 
	C573.075073,1334.703247 571.612549,1332.737915 567.259644,1332.959229 
	C563.436707,1333.153687 559.579773,1333.220947 555.767517,1332.940796 
	C551.531250,1332.629517 550.136536,1334.936768 550.042419,1338.504517 
	C549.910645,1343.500488 550.007812,1348.502319 550.007080,1354.500977 
M1579.569702,1353.080322 
	C1572.399780,1342.895264 1562.466431,1337.189697 1550.592773,1333.723145 
	C1537.561401,1329.918457 1524.628174,1330.217773 1511.807861,1333.259644 
	C1501.803345,1335.633301 1492.323608,1340.278931 1486.604248,1349.231689 
	C1483.055054,1354.787598 1480.344238,1361.441162 1479.338623,1367.924805 
	C1477.926025,1377.033081 1479.846802,1386.006958 1485.379395,1393.973877 
	C1493.062500,1405.037964 1504.909058,1409.756104 1516.433350,1414.951050 
	C1527.478760,1419.930298 1538.937744,1424.060181 1549.698730,1429.571533 
	C1554.749023,1432.158203 1560.073486,1436.315552 1562.672119,1441.157471 
	C1568.594116,1452.190918 1562.080078,1464.736328 1550.098389,1469.130005 
	C1539.805420,1472.904663 1529.622437,1472.546631 1519.412476,1469.682251 
	C1511.036743,1467.332397 1504.362183,1462.388062 1501.127197,1454.064941 
	C1499.748535,1450.517944 1500.041260,1446.343872 1498.843384,1442.694824 
	C1498.239502,1440.855835 1496.182129,1438.513916 1494.468262,1438.218384 
	C1490.585938,1437.548828 1486.505493,1437.905518 1482.512085,1438.037842 
	C1478.950317,1438.155884 1476.471436,1439.519409 1476.987427,1443.750244 
	C1477.383057,1446.996094 1477.812866,1450.249756 1477.961304,1453.512085 
	C1478.825928,1472.513550 1494.978516,1484.859985 1510.978394,1488.748169 
	C1519.468140,1490.811279 1528.572510,1490.380005 1537.405396,1490.987793 
	C1548.362793,1491.741821 1558.284058,1488.477051 1567.644165,1483.052734 
	C1584.783081,1473.120728 1590.741943,1454.701904 1585.902954,1437.435425 
	C1582.303955,1424.593872 1572.725586,1416.554932 1561.226318,1411.183105 
	C1548.515747,1405.245361 1535.332764,1400.315430 1522.333740,1395.000122 
	C1514.813599,1391.925171 1507.245117,1388.307007 1503.277100,1381.108032 
	C1497.598145,1370.804932 1503.972778,1356.768066 1515.261108,1353.051270 
	C1524.363525,1350.054321 1533.859863,1350.305908 1542.857544,1352.613647 
	C1552.669189,1355.130005 1560.580078,1361.434204 1562.804565,1371.768677 
	C1565.406738,1383.857300 1564.787964,1383.990479 1577.242554,1383.989014 
	C1578.408569,1383.988892 1579.585693,1384.090820 1580.738647,1383.967773 
	C1583.990356,1383.620850 1585.897705,1382.468750 1586.125977,1378.499756 
	C1586.643311,1369.505127 1584.176636,1361.444092 1579.569702,1353.080322 
M887.125427,1334.048096 
	C873.946777,1330.633545 860.706177,1329.706299 847.346497,1332.997559 
	C836.304016,1335.717896 826.751587,1340.686401 819.924988,1350.219360 
	C815.442871,1356.478271 814.059692,1363.390259 813.874451,1370.917969 
	C813.689697,1378.424805 814.476685,1385.423218 818.436707,1392.088623 
	C824.933044,1403.023071 835.532471,1408.143433 846.441772,1412.993896 
	C859.711853,1418.894287 873.125183,1424.497070 886.201782,1430.798584 
	C894.110718,1434.610107 899.579590,1440.920044 898.922913,1450.435059 
	C898.356689,1458.639038 893.493469,1466.071411 883.226929,1469.478760 
	C875.201904,1472.142090 867.303162,1472.385620 859.106567,1471.031372 
	C846.153259,1468.891113 832.618896,1459.681519 833.879395,1444.869751 
	C834.341858,1439.436157 832.368774,1438.045532 826.913879,1438.008911 
	C823.581787,1437.986694 820.249146,1438.031250 816.917236,1437.999023 
	C812.837036,1437.959595 810.817810,1439.995361 811.041504,1444.020386 
	C811.204529,1446.952515 811.716797,1449.863525 811.985168,1452.791992 
	C813.604797,1470.467285 824.268738,1480.746338 839.876038,1487.030151 
	C854.790955,1493.035156 870.281250,1491.926147 885.540771,1489.749023 
	C895.198242,1488.370972 904.034363,1483.522339 910.891602,1476.389893 
	C916.814758,1470.229004 920.163757,1462.645142 921.199768,1453.829834 
	C922.530762,1442.504761 920.116760,1432.713379 912.615173,1424.058228 
	C903.703613,1413.776123 891.385681,1409.259155 879.482910,1404.013062 
	C868.273376,1399.072632 856.868713,1394.545898 845.838867,1389.236816 
	C837.840820,1385.387085 834.999573,1378.215576 836.012695,1369.534302 
	C836.921387,1361.747070 841.135437,1356.851807 848.473083,1353.767456 
	C857.597168,1349.932251 867.032959,1350.419189 875.936951,1352.351318 
	C886.504944,1354.644897 895.399353,1361.069336 897.056335,1373.121460 
	C898.553589,1384.011719 898.720886,1383.989624 910.144043,1383.988037 
	C911.976685,1383.987793 913.960083,1384.412842 915.599548,1383.846680 
	C917.237549,1383.281494 919.688538,1381.818481 919.795471,1380.577759 
	C920.779236,1369.163818 918.585388,1358.552612 910.985718,1349.451782 
	C904.793030,1342.035889 896.600586,1337.836304 887.125427,1334.048096 
M1193.500000,1420.977173 
	C1202.328857,1420.977173 1211.157593,1420.978394 1219.986450,1420.976807 
	C1228.000244,1420.975220 1227.964722,1420.973633 1228.009644,1412.844971 
	C1228.079346,1400.201172 1228.926025,1400.935791 1216.187866,1400.984375 
	C1201.241821,1401.041260 1186.295654,1400.997681 1171.148682,1400.997681 
	C1171.148682,1384.818726 1171.148682,1369.090210 1171.148682,1352.919067 
	C1172.992920,1352.919067 1174.614014,1352.919067 1176.235229,1352.919067 
	C1197.390991,1352.919067 1218.547485,1352.812744 1239.702271,1352.956177 
	C1254.057007,1353.053345 1252.984131,1353.115356 1252.970337,1339.232788 
	C1252.965820,1334.791016 1251.264526,1332.871094 1246.412598,1332.901245 
	C1215.762939,1333.091919 1185.111572,1332.993164 1154.460693,1333.002319 
	C1148.588013,1333.004028 1148.003052,1333.613037 1148.002197,1339.718262 
	C1147.995361,1387.526978 1147.995361,1435.335571 1148.001831,1483.144287 
	C1148.002686,1489.448730 1148.499146,1489.931885 1154.875854,1489.933228 
	C1183.194580,1489.939331 1211.513428,1489.981812 1239.832031,1489.915771 
	C1252.933472,1489.885132 1253.095581,1492.677368 1252.974121,1476.304688 
	C1252.941528,1471.899536 1251.365356,1469.857544 1246.458252,1469.903442 
	C1223.139038,1470.121948 1199.816528,1470.000977 1176.495239,1470.000854 
	C1174.728271,1470.000854 1172.961182,1470.000854 1171.246094,1470.000854 
	C1171.246094,1453.338623 1171.246094,1437.282959 1171.246094,1420.977173 
	C1178.547485,1420.977173 1185.523682,1420.977173 1193.500000,1420.977173 
M1004.001953,1459.500000 
	C1004.001953,1447.738525 1004.001953,1435.976929 1004.001953,1422.992554 
	C1020.832520,1422.992554 1037.123047,1423.877808 1053.262085,1422.695557 
	C1064.906006,1421.842529 1074.716187,1415.677368 1082.054565,1405.992432 
	C1089.015503,1396.805542 1090.162720,1386.418701 1090.063843,1375.416504 
	C1089.843628,1350.911255 1071.642334,1333.530273 1047.489868,1333.075317 
	C1027.505859,1332.698730 1007.509094,1332.992432 987.518005,1333.001709 
	C981.501282,1333.004395 981.025696,1333.495728 981.025208,1339.618286 
	C981.021667,1382.765747 981.023743,1425.913330 981.023926,1469.060791 
	C981.023987,1473.891968 981.047363,1478.723267 981.016602,1483.554321 
	C980.989441,1487.826416 982.343018,1490.486450 987.346619,1490.030396 
	C990.816284,1489.714355 994.349365,1489.791382 997.833557,1490.014282 
	C1002.288879,1490.299194 1004.190002,1488.581421 1004.061829,1483.987915 
	C1003.843506,1476.164185 1004.001892,1468.329834 1004.001953,1459.500000 
M749.919983,1435.500000 
	C749.919983,1421.851807 749.920105,1408.203735 749.919983,1394.555542 
	C749.919800,1376.080566 749.841309,1357.604980 749.975952,1339.130981 
	C750.008301,1334.695435 748.493530,1332.609253 743.879517,1332.954468 
	C740.900330,1333.177490 737.890808,1332.995972 734.894897,1332.996704 
	C727.374390,1332.998657 727.005310,1333.354370 727.004639,1340.878296 
	C727.000366,1387.814697 727.002380,1434.750977 727.002991,1481.687378 
	C727.002991,1482.686035 726.983582,1483.685547 727.020752,1484.682983 
	C727.155579,1488.303589 728.836548,1490.116211 732.668823,1489.919678 
	C736.320862,1489.732544 740.004272,1489.677368 743.648376,1489.930664 
	C748.515625,1490.268799 750.041626,1488.103760 749.987915,1483.435669 
	C749.807922,1467.792236 749.919800,1452.145508 749.919983,1435.500000 
M262.955444,1596.690308 
	C266.843475,1599.129150 270.578613,1601.868774 274.653473,1603.940063 
	C281.690735,1607.517090 289.153473,1610.294434 296.035217,1614.129517 
	C302.272369,1617.605469 302.783386,1624.965820 297.593994,1629.850220 
	C291.442535,1635.640625 284.009979,1634.896362 276.840363,1632.810791 
	C269.463257,1630.665039 266.339478,1625.015381 266.958344,1617.009277 
	C264.014740,1617.009277 261.349976,1616.747314 258.784332,1617.137207 
	C257.746765,1617.294800 256.209808,1618.812378 256.120178,1619.819580 
	C255.453278,1627.311523 257.806488,1633.579102 264.205688,1638.037476 
	C275.071808,1645.607666 287.066833,1646.219238 298.668518,1641.448486 
	C310.688873,1636.505615 314.754578,1627.329102 310.875946,1614.647217 
	C308.536041,1606.996216 301.232544,1604.125732 294.628510,1601.044067 
	C287.901733,1597.905151 280.890442,1595.344360 274.298462,1591.956909 
	C267.095459,1588.255371 265.670471,1580.699341 271.027222,1575.852295 
	C276.712311,1570.708496 284.465515,1570.670898 291.395996,1573.355835 
	C296.288422,1575.251221 300.081238,1578.916382 300.136780,1585.244629 
	C300.173798,1589.461182 303.885895,1588.959961 306.885742,1589.017334 
	C309.781128,1589.072632 312.457642,1587.961182 311.814362,1585.007690 
	C310.809692,1580.395020 309.575409,1575.369873 306.860626,1571.680542 
	C299.268066,1561.362549 280.127319,1559.268433 268.625336,1564.848145 
	C255.851761,1571.044922 252.880356,1586.350464 262.955444,1596.690308 
M460.999817,1649.535156 
	C460.999817,1646.041870 460.999817,1642.548462 460.999817,1638.274170 
	C473.435974,1648.946411 490.280396,1643.767578 495.655853,1630.703979 
	C499.209381,1622.068481 498.661194,1612.921631 497.316772,1604.018677 
	C496.673157,1599.756348 494.458221,1595.494385 492.083679,1591.790649 
	C489.160004,1587.230713 484.327240,1584.702026 478.975067,1584.090698 
	C472.701447,1583.374268 466.462830,1583.701782 461.647095,1589.862793 
	C460.420746,1582.268066 455.223877,1585.310547 451.713562,1585.163818 
	C447.726227,1584.997192 449.067810,1588.661499 449.059540,1590.847534 
	C448.975769,1612.970947 449.008026,1635.094727 449.008759,1657.218506 
	C449.009033,1665.062744 449.607178,1665.745117 457.413544,1664.856079 
	C458.718842,1664.707275 460.662903,1662.777710 460.834106,1661.476685 
	C461.307434,1657.879272 460.999115,1654.179077 460.999817,1649.535156 
M1072.991577,1600.703979 
	C1070.302490,1609.875610 1070.488647,1619.264771 1073.248779,1628.140259 
	C1078.684570,1645.619507 1099.421387,1648.709351 1108.018555,1638.591064 
	C1108.145020,1638.442017 1108.600464,1638.572388 1108.900391,1638.572388 
	C1108.993652,1640.027832 1109.084229,1641.442871 1109.161011,1642.642944 
	C1113.044556,1642.642944 1116.446411,1642.642944 1119.614868,1642.642944 
	C1119.614868,1615.889526 1119.614868,1589.494751 1119.614868,1563.231689 
	C1115.943848,1563.231689 1112.662354,1563.231689 1108.770630,1563.231689 
	C1108.770630,1571.934204 1108.770630,1580.422607 1108.770630,1589.152100 
	C1105.957764,1587.542725 1103.874268,1585.857544 1101.493896,1585.074951 
	C1091.497437,1581.788452 1077.881226,1584.916626 1072.991577,1600.703979 
M974.992798,1620.501221 
	C974.663025,1613.918945 974.479309,1607.325317 973.964905,1600.757568 
	C973.381897,1593.314087 967.508850,1586.419434 960.292175,1585.096069 
	C955.808044,1584.273560 951.100952,1583.704468 946.600708,1584.135742 
	C937.731079,1584.985474 929.775574,1590.305908 927.991333,1600.046509 
	C931.481934,1600.560547 934.964722,1601.512451 938.397339,1601.357056 
	C939.722290,1601.296997 941.059570,1598.814453 942.171753,1597.276978 
	C945.036926,1593.315796 951.656982,1592.951416 957.223877,1594.867065 
	C962.662720,1596.738525 963.379944,1601.468506 962.820312,1607.010620 
	C958.772522,1607.010620 954.791077,1606.750977 950.855530,1607.065430 
	C942.983582,1607.694336 935.308777,1608.849487 929.803467,1615.638428 
	C925.423584,1621.039673 925.228333,1626.982910 927.140137,1633.108521 
	C928.795471,1638.412720 932.640747,1641.570679 938.141968,1643.065796 
	C947.161316,1645.517212 955.194946,1643.636719 962.817505,1638.091553 
	C962.594849,1645.538208 967.966370,1642.587280 971.294189,1642.920532 
	C975.327393,1643.324463 974.917725,1640.014648 974.963379,1637.489136 
	C975.059631,1632.161133 974.992737,1626.830078 974.992798,1620.501221 
M1498.439209,1591.074463 
	C1497.137329,1593.771362 1495.835571,1596.468262 1494.538208,1599.156006 
	C1500.977661,1602.298950 1504.486938,1601.787964 1508.108887,1597.569458 
	C1510.617798,1594.647339 1520.250854,1592.670532 1523.813110,1594.346924 
	C1528.284058,1596.450684 1530.474609,1601.402466 1529.550537,1605.752686 
	C1520.670044,1607.208252 1512.025146,1607.999268 1503.741211,1610.168457 
	C1496.261475,1612.127075 1492.919189,1618.685547 1493.000122,1627.915283 
	C1493.062256,1635.000854 1496.997681,1640.807129 1504.036987,1642.887573 
	C1512.003540,1645.242065 1519.808472,1644.682373 1526.880737,1639.667480 
	C1527.725586,1639.068359 1528.804321,1638.799438 1529.868042,1638.336914 
	C1529.992065,1640.047974 1530.093750,1641.450684 1530.179443,1642.632812 
	C1534.073853,1642.632812 1537.469482,1642.632812 1540.999756,1642.632812 
	C1540.999756,1628.454346 1541.230835,1614.636597 1540.822876,1600.837891 
	C1540.731079,1597.733765 1538.920654,1594.325684 1537.020508,1591.693604 
	C1530.138184,1582.160889 1509.581055,1580.540527 1498.439209,1591.074463 
M793.048462,1620.165771 
	C794.140686,1619.443970 795.221130,1618.117554 796.327026,1618.096069 
	C805.140198,1617.924438 813.958069,1618.000244 822.774536,1618.000244 
	C831.080505,1618.000122 831.529785,1617.961304 830.839600,1609.973755 
	C830.391785,1604.791504 829.218262,1599.334351 826.921326,1594.721802 
	C822.563354,1585.970459 814.556580,1583.531616 805.086121,1583.903687 
	C794.168091,1584.332520 784.817810,1590.890747 783.218262,1601.632568 
	C782.128113,1608.953491 782.076111,1616.715088 783.234802,1624.013672 
	C784.742249,1633.509521 789.990173,1641.712036 801.939148,1643.817383 
	C811.071594,1645.426514 822.715515,1642.206787 827.855286,1633.827759 
	C829.626953,1630.939697 829.233459,1629.510010 826.586914,1628.050781 
	C825.328186,1627.356689 824.107117,1626.594238 822.487732,1625.637573 
	C818.141663,1633.500610 811.093872,1635.555786 803.252319,1633.521973 
	C797.361084,1631.994019 793.803711,1627.409180 793.048462,1620.165771 
M1167.856323,1597.630249 
	C1164.592896,1607.615967 1164.637573,1617.475708 1167.812256,1627.600098 
	C1170.768921,1637.028931 1177.008423,1642.589600 1186.302856,1643.840454 
	C1199.066528,1645.557983 1208.053101,1640.689087 1213.199341,1630.316650 
	C1210.851807,1628.823120 1208.448364,1627.294067 1206.061279,1625.775391 
	C1199.528076,1634.855835 1194.095581,1635.414795 1185.938477,1633.214966 
	C1178.958618,1631.332397 1176.462891,1625.950562 1177.492310,1617.925171 
	C1189.841064,1617.925171 1202.253296,1617.925171 1215.405151,1617.925171 
	C1214.812378,1612.406738 1215.096558,1607.116089 1213.513306,1602.460815 
	C1211.798706,1597.419189 1209.393921,1591.636230 1205.442139,1588.520874 
	C1195.061523,1580.337280 1175.728516,1581.644165 1167.856323,1597.630249 
M1604.241943,1643.733276 
	C1606.890991,1643.822388 1609.553223,1644.124878 1612.186646,1643.961914 
	C1621.036377,1643.414673 1627.890991,1639.868164 1632.165283,1631.537354 
	C1636.926758,1622.256714 1637.126587,1612.599365 1634.832886,1602.969604 
	C1631.687500,1589.763672 1623.001221,1584.961304 1613.667603,1584.033936 
	C1598.649170,1582.541382 1588.955200,1590.933472 1586.542847,1601.167114 
	C1585.169678,1606.992310 1584.485596,1613.328735 1585.205933,1619.225586 
	C1586.700073,1631.454956 1590.491577,1639.534546 1604.241943,1643.733276 
M586.043884,1635.437866 
	C586.712952,1634.524902 587.517822,1633.682007 588.030151,1632.688232 
	C593.331665,1622.404297 593.275269,1611.653809 590.320312,1600.828491 
	C584.978149,1581.257812 560.011169,1579.241455 548.746826,1590.846924 
	C540.485352,1599.358398 540.015503,1610.111206 541.580994,1621.054810 
	C542.535950,1627.730591 544.657166,1634.220581 550.187073,1638.535522 
	C560.746826,1646.775635 577.078186,1646.121216 586.043884,1635.437866 
M366.992950,1601.504883 
	C366.992706,1597.340210 366.844147,1593.168945 367.028625,1589.012451 
	C367.275848,1583.443359 363.216553,1585.272705 360.426208,1585.025879 
	C357.458771,1584.763428 354.842102,1584.674438 354.932953,1589.151611 
	C355.162750,1600.474854 354.755432,1611.813477 355.095520,1623.131348 
	C355.335327,1631.111938 357.820007,1638.532593 365.915863,1641.845947 
	C374.299744,1645.277466 382.724091,1645.639526 389.947266,1638.646484 
	C390.123627,1638.475586 390.550964,1638.563843 390.882294,1638.529175 
	C390.991882,1639.959351 391.100464,1641.376587 391.199860,1642.673828 
	C394.969696,1642.673828 398.376709,1642.673828 401.656860,1642.673828 
	C401.656860,1623.285522 401.656860,1604.225464 401.656860,1585.376831 
	C397.909912,1585.376831 394.513214,1585.376831 390.999603,1585.376831 
	C390.999603,1597.408936 391.018524,1609.064453 390.993378,1620.719971 
	C390.974457,1629.504395 386.014709,1633.995483 378.309052,1633.984619 
	C371.205505,1633.974731 367.011780,1629.104126 366.997681,1620.994141 
	C366.986969,1614.830444 366.993896,1608.666626 366.992950,1601.504883 
M1411.390015,1609.919922 
	C1415.383911,1612.301636 1419.214355,1615.039062 1423.415894,1616.968506 
	C1427.931396,1619.042236 1432.821777,1620.285522 1437.499146,1622.024292 
	C1441.754028,1623.606201 1443.086914,1627.489258 1440.563843,1630.908569 
	C1437.256958,1635.390259 1432.251221,1635.737671 1427.609253,1634.792847 
	C1423.968628,1634.052002 1419.835449,1633.020386 1418.849121,1627.803223 
	C1418.027100,1623.455078 1413.830933,1625.083618 1411.070068,1625.223755 
	C1409.985596,1625.278687 1408.295898,1627.597778 1408.130981,1629.029663 
	C1407.547241,1634.095215 1410.909912,1637.626831 1414.673218,1639.726074 
	C1424.998169,1645.485352 1435.781616,1645.814819 1446.250000,1639.889648 
	C1453.549194,1635.758057 1456.253052,1623.261963 1449.588135,1617.359863 
	C1445.955078,1614.142700 1441.138550,1612.110962 1436.609253,1610.099365 
	C1432.067749,1608.082397 1427.167847,1606.888550 1422.522827,1605.082520 
	C1418.899536,1603.673584 1417.675537,1600.242920 1420.279053,1597.816162 
	C1422.891235,1595.381226 1427.032471,1593.254028 1430.432129,1593.356812 
	C1434.117188,1593.468018 1438.980347,1593.330688 1441.175293,1598.456177 
	C1443.708618,1604.372559 1447.423706,1604.776489 1453.449829,1599.916016 
	C1451.930786,1597.110229 1450.853027,1593.731812 1448.678223,1591.358887 
	C1441.666016,1583.707886 1432.784302,1583.148682 1423.061523,1584.887451 
	C1411.252930,1586.999146 1403.507690,1598.510376 1411.390015,1609.919922 
M1269.324951,1620.829834 
	C1269.558350,1614.935059 1269.363892,1608.981201 1270.164795,1603.164551 
	C1270.773071,1598.748291 1273.906128,1595.202148 1278.334473,1594.375610 
	C1282.716309,1593.557739 1287.742432,1592.561646 1291.256470,1596.832520 
	C1293.582642,1599.659790 1295.489868,1602.831909 1297.580200,1605.843384 
	C1298.839355,1605.559082 1300.060425,1605.151489 1301.310059,1605.023438 
	C1307.450928,1604.394165 1308.079102,1603.464600 1305.890869,1597.771729 
	C1305.487183,1596.721436 1304.872314,1595.735962 1304.251587,1594.788330 
	C1298.524536,1586.046143 1290.131592,1583.188843 1280.142578,1584.011230 
	C1271.822388,1584.696045 1265.175781,1588.229004 1261.060913,1595.745972 
	C1257.155273,1602.880981 1258.120117,1610.704834 1257.989258,1618.376587 
	C1257.774414,1630.979370 1264.500854,1641.008179 1277.047729,1643.516235 
	C1289.407959,1645.987061 1302.785645,1640.995483 1306.415649,1628.057129 
	C1306.687622,1627.088257 1306.801514,1625.641235 1306.279541,1624.959229 
	C1304.138672,1622.162109 1296.567749,1623.125122 1294.952271,1626.255127 
	C1291.843018,1632.279297 1286.102539,1635.236328 1279.462036,1633.943848 
	C1275.502930,1633.173096 1270.492676,1629.491699 1269.324951,1620.829834 
M725.989807,1619.437866 
	C725.989807,1611.021118 725.989807,1602.604370 725.989807,1593.999878 
	C729.789368,1593.999878 732.944275,1593.863525 736.081970,1594.038086 
	C739.240479,1594.213867 740.126770,1592.743286 740.037170,1589.841309 
	C739.954773,1587.168335 740.098694,1584.752930 736.267578,1584.963135 
	C732.990723,1585.142822 729.696228,1585.000244 725.989807,1585.000244 
	C725.989807,1582.971191 726.019165,1581.344727 725.985107,1579.719604 
	C725.763123,1569.123047 728.068298,1569.909302 716.158447,1570.080322 
	C715.880798,1570.084351 715.606995,1570.351807 714.999268,1570.670654 
	C714.999268,1573.972046 714.873535,1577.441162 715.037537,1580.896484 
	C715.178162,1583.860474 714.125977,1585.405396 711.042297,1584.984375 
	C707.086304,1584.444214 705.824158,1586.043823 705.883362,1590.022217 
	C705.944214,1594.115112 708.212158,1594.124023 711.087036,1594.025391 
	C712.332825,1593.982544 713.588013,1594.213379 714.999878,1594.333740 
	C714.999878,1606.488159 714.974670,1618.290894 715.010132,1630.093384 
	C715.028931,1636.355957 717.715759,1640.351196 723.821411,1641.898926 
	C727.565979,1642.848267 731.594177,1642.698120 735.498840,1642.990479 
	C739.485107,1643.288940 738.964478,1640.430054 739.010559,1637.934570 
	C739.058594,1635.329468 739.265991,1632.857056 735.368530,1632.924438 
	C733.352661,1632.959595 731.148315,1632.574585 729.332764,1631.728027 
	C724.124573,1629.299683 726.535217,1624.369629 725.989807,1619.437866 
M648.000000,1622.506226 
	C648.000122,1618.673462 647.746643,1614.820435 648.050415,1611.011963 
	C648.797546,1601.642090 651.550232,1595.085083 663.532043,1596.162109 
	C670.294373,1596.769897 669.034119,1591.767090 669.833496,1588.597168 
	C670.915771,1584.305420 666.607239,1584.786987 664.303345,1584.162354 
	C662.590454,1583.697998 660.301880,1584.140869 658.641663,1584.946533 
	C654.967957,1586.729126 651.528442,1588.994629 647.855103,1591.144287 
	C647.855103,1589.285889 647.855103,1587.333374 647.855103,1585.239380 
	C644.206726,1585.239380 640.794067,1585.239380 637.263062,1585.239380 
	C637.263062,1604.544556 637.263062,1623.609375 637.263062,1642.710205 
	C640.930603,1642.710205 644.327576,1642.710205 648.000000,1642.710205 
	C648.000000,1636.117432 648.000000,1629.810669 648.000000,1622.506226 
M1351.404053,1641.877197 
	C1353.276123,1642.251831 1355.141602,1642.663940 1357.021484,1642.993896 
	C1361.933350,1643.855591 1363.173462,1641.643921 1363.091064,1636.912598 
	C1362.816284,1621.115356 1362.811279,1605.307495 1363.086426,1589.510254 
	C1363.176880,1584.319336 1360.124146,1585.031738 1356.937622,1584.970703 
	C1353.605591,1584.907104 1350.821533,1584.600342 1350.903198,1589.629395 
	C1351.181030,1606.757446 1351.034668,1623.892578 1351.404053,1641.877197 
M1532.316772,1573.127197 
	C1533.659180,1571.385742 1535.001465,1569.644287 1536.412354,1567.813843 
	C1534.638428,1566.201782 1533.329102,1565.011963 1532.056152,1563.855103 
	C1527.098389,1568.057373 1524.584351,1568.177612 1519.184814,1564.687012 
	C1515.195068,1562.108154 1509.748779,1562.293213 1506.394653,1565.121826 
	C1501.460938,1569.282227 1501.661743,1570.862183 1507.502319,1573.830078 
	C1511.643311,1570.095825 1513.583130,1569.737061 1518.803955,1573.042969 
	C1523.166504,1575.805176 1527.352051,1575.586182 1532.316772,1573.127197 
M1363.966431,1571.943848 
	C1363.977661,1570.945557 1363.890015,1569.934326 1364.017944,1568.951172 
	C1364.471802,1565.462158 1362.827271,1562.860229 1359.721313,1562.162476 
	C1355.977173,1561.321289 1352.189941,1561.614136 1349.961060,1565.898438 
	C1348.174927,1569.331177 1349.320435,1571.815063 1351.707642,1574.198486 
	C1354.899292,1577.384399 1359.688843,1576.805908 1363.966431,1571.943848 
z"/>
<path fill="#004E82" opacity="1.000000" stroke="none" 
	d="
M432.746643,952.319702 
	C431.444916,953.111328 429.933563,953.688477 428.872162,954.726013 
	C404.710846,978.342285 380.602264,1002.012573 356.462158,1025.650635 
	C355.635712,1026.459839 354.584137,1027.039185 352.770630,1028.354248 
	C352.369537,1021.633240 351.885956,1016.046997 351.727448,1010.451538 
	C350.911591,981.651306 350.175507,952.848816 349.418365,924.046875 
	C348.315521,882.097351 347.240784,840.147034 346.101746,798.198547 
	C345.848846,788.884521 345.232361,779.578674 345.086700,770.264404 
	C345.036133,767.028442 343.850006,765.921753 340.781067,765.640442 
	C334.173370,765.034607 327.572113,764.272705 321.005768,763.316833 
	C297.482635,759.892517 275.747742,751.520386 255.491058,739.214233 
	C230.689880,724.147217 210.471680,704.330811 195.214828,679.672119 
	C186.759277,666.005920 180.085526,651.506897 175.598694,635.903381 
	C170.150375,616.956116 167.985336,597.759521 167.995514,578.147278 
	C168.056671,460.324951 167.983963,342.502533 168.081635,224.680252 
	C168.093735,210.088852 170.308884,195.733185 173.503906,181.445236 
	C178.781403,157.844666 189.005249,136.616440 203.129471,117.242676 
	C217.446289,97.604744 235.215332,81.784157 256.318298,69.443169 
	C275.514984,58.217007 295.936432,50.914131 317.726685,47.274277 
	C325.070068,46.047634 332.565125,45.095253 339.991455,45.091457 
	C562.304016,44.977768 784.616699,44.903988 1006.929138,45.117413 
	C1035.214844,45.144566 1061.720947,53.308975 1086.545654,66.803307 
	C1103.851562,76.210625 1119.282104,88.134117 1132.366333,102.822357 
	C1146.269287,118.429688 1158.179565,135.502335 1165.095947,155.428055 
	C1169.546021,168.248444 1173.446411,181.310577 1176.645386,194.494354 
	C1178.426758,201.835602 1178.799438,209.642258 1178.882324,217.249252 
	C1179.149414,241.744095 1178.986938,266.243622 1178.990234,290.741333 
	C1178.990479,292.554474 1178.990234,294.367584 1178.990234,296.723633 
	C1181.539673,296.850769 1183.801025,297.061951 1186.062378,297.062225 
	C1314.550415,297.078033 1443.038574,297.144440 1571.526367,297.002655 
	C1590.738281,296.981476 1609.723755,298.695801 1628.053589,304.195923 
	C1659.518433,313.637390 1686.699341,330.273102 1709.066895,354.650543 
	C1726.748657,373.921051 1739.468018,396.033722 1747.366333,420.792450 
	C1750.613892,430.972778 1752.862549,441.657013 1753.999023,452.279602 
	C1755.480835,466.127625 1755.905396,480.141693 1755.921875,494.085297 
	C1756.059937,611.074280 1756.258667,728.064392 1755.812378,845.051819 
	C1755.705444,873.083130 1747.383301,899.442261 1733.842773,924.074280 
	C1724.087646,941.820129 1711.623901,957.415894 1696.619385,970.926025 
	C1678.756470,987.009644 1658.514282,999.113770 1635.824585,1007.347595 
	C1618.902832,1013.488281 1601.515015,1016.826904 1583.695435,1018.222412 
	C1580.067993,1018.506531 1579.281372,1019.977417 1579.226318,1023.138428 
	C1578.867188,1043.792358 1578.457764,1064.445801 1577.953857,1085.096680 
	C1577.349121,1109.886719 1576.641968,1134.674316 1575.964233,1159.462402 
	C1575.309204,1183.418457 1574.715820,1207.376709 1573.937012,1231.328613 
	C1573.511353,1244.420776 1572.757324,1257.502319 1572.154785,1270.511108 
	C1564.980469,1272.006470 1559.702026,1270.536377 1554.281250,1265.100952 
	C1515.090576,1225.803589 1475.475342,1186.929688 1435.556396,1147.480835 
	C1434.206909,1146.337036 1433.215942,1145.715820 1432.396118,1144.918579 
	C1420.252319,1133.110229 1408.077271,1121.333496 1396.015503,1109.441528 
	C1366.857788,1080.694092 1337.712891,1051.933105 1308.695312,1023.044678 
	C1305.736816,1020.099365 1302.825195,1018.930481 1298.657593,1018.934082 
	C1174.203003,1019.041687 1049.747925,1019.154968 925.294128,1018.825073 
	C912.145203,1018.790222 898.848389,1016.837708 885.896301,1014.342102 
	C868.246521,1010.941223 851.508240,1004.548218 835.830505,995.492737 
	C808.439575,979.671692 786.516418,958.493042 770.326599,931.175476 
	C752.599792,901.264282 745.003967,868.887451 745.013306,834.428040 
	C745.018921,813.768921 744.894592,793.108459 745.111023,772.451660 
	C745.156311,768.132202 744.101135,766.763794 739.590027,766.784790 
	C701.104858,766.964294 662.618164,766.823303 624.133301,767.030457 
	C621.523987,767.044434 618.358032,768.494507 616.418884,770.310303 
	C607.188904,778.952942 598.305542,787.965332 589.277588,796.824524 
	C563.328796,822.288513 537.322998,847.694702 511.428040,873.213257 
	C486.783966,897.498962 462.238556,921.884888 437.695587,946.272888 
	C435.857788,948.099060 434.387695,950.295410 432.746643,952.319702 
M415.063416,730.700378 
	C415.656830,750.644104 416.427826,770.584656 416.791534,790.532593 
	C417.125641,808.855469 416.947174,827.187195 417.160400,845.513123 
	C417.215271,850.226196 417.895172,854.931946 418.355591,860.452454 
	C420.056091,859.081909 421.105286,858.364258 422.005035,857.492371 
	C443.367401,836.789551 464.769073,816.126831 486.050293,795.340820 
	C519.589111,762.582397 553.072632,729.767273 586.486145,696.881287 
	C589.332031,694.080322 592.272583,692.949646 596.222961,692.957642 
	C643.710022,693.054077 691.197327,693.019897 738.684570,693.019836 
	C740.621338,693.019836 742.558105,693.019836 744.911987,693.019836 
	C744.911987,652.873413 744.911987,613.427185 745.235229,573.210205 
	C745.398682,567.913513 745.648926,562.617676 745.704651,557.319824 
	C745.784424,549.742004 745.723694,549.736450 738.039429,549.736328 
	C634.208801,549.735168 530.378113,549.750916 426.547485,549.691895 
	C421.068420,549.688782 415.370331,549.908203 410.148132,548.567383 
	C385.178070,542.156311 375.880402,507.122284 393.687897,488.266205 
	C401.722839,479.758118 411.786804,477.138794 422.715698,477.127991 
	C528.546204,477.023346 634.376892,477.037750 740.207336,477.161224 
	C744.584778,477.166351 745.810608,476.011810 745.925781,471.618713 
	C746.142822,463.333313 746.575562,454.961975 747.997375,446.814606 
	C756.895447,395.825714 782.686951,355.257507 825.616455,326.524078 
	C855.459778,306.549469 889.027100,297.021210 925.149841,297.062073 
	C983.481567,297.127991 1041.813599,297.038177 1100.145142,297.156586 
	C1104.932373,297.166290 1106.812134,296.058441 1106.731323,290.768433 
	C1106.413208,269.940491 1106.715942,249.104004 1106.563477,228.272324 
	C1106.442261,211.726242 1103.800659,195.594650 1096.956543,180.398590 
	C1087.516724,159.439392 1072.935303,143.006760 1052.909912,131.589584 
	C1034.306885,120.983284 1014.098755,117.140236 992.856812,117.146805 
	C781.528931,117.212128 570.200989,117.124352 358.873322,117.344360 
	C346.527557,117.357208 334.064117,118.954239 321.868835,121.053673 
	C305.225220,123.918907 290.809357,132.072510 278.092285,143.038651 
	C252.219925,165.348846 240.823792,194.243454 240.789291,227.845169 
	C240.667603,346.342010 240.694199,464.839020 240.800049,583.335876 
	C240.813583,598.485413 243.187027,613.302612 249.017944,627.482727 
	C258.559509,650.686768 274.359802,668.433472 296.273865,680.235413 
	C305.185272,685.034729 315.099152,688.889587 325.008270,690.689758 
	C337.654480,692.987061 350.746277,693.157776 363.666748,693.534180 
	C378.653625,693.970703 393.666321,693.811768 408.660645,693.529846 
	C413.231323,693.443909 414.340515,695.203491 414.382446,699.313293 
	C414.485870,709.458130 414.914429,719.599670 415.063416,730.700378 
M1075.946289,553.447449 
	C1059.482910,582.995483 1049.869507,614.809753 1046.244629,648.260620 
	C1043.749023,671.289734 1044.803589,694.356689 1048.780151,717.342896 
	C1055.301147,755.037781 1069.671631,789.243530 1091.866943,820.326965 
	C1115.028809,852.763855 1144.277344,878.322327 1179.426392,896.809998 
	C1229.888306,923.351685 1283.461304,931.765503 1339.736450,922.062317 
	C1390.510498,913.307678 1434.201416,890.444336 1471.356567,855.037720 
	C1489.660034,837.595520 1504.704712,817.545471 1516.848145,795.306213 
	C1535.378052,761.370605 1546.028809,725.152771 1547.878540,686.562012 
	C1548.883667,665.592041 1547.141602,644.679321 1542.983154,624.044250 
	C1535.005371,584.457520 1518.272705,548.901306 1493.402588,516.829590 
	C1485.582153,526.158569 1477.816406,535.422363 1470.094604,544.633606 
	C1539.961548,630.624634 1518.613892,770.134888 1435.620239,839.291077 
	C1358.067993,903.913208 1235.720581,910.055359 1151.927612,833.992554 
	C1078.622192,767.449890 1056.729736,654.944397 1112.537354,562.604248 
	C1140.463989,516.396240 1180.601685,484.445282 1232.411377,468.867554 
	C1287.160522,452.406006 1341.115967,454.581360 1393.331909,480.941620 
	C1400.556152,471.500397 1407.860840,461.953857 1415.344849,452.173035 
	C1414.095947,451.489502 1413.390015,451.096100 1412.677734,450.714478 
	C1384.080933,435.391266 1353.620483,426.518280 1321.274414,423.823090 
	C1291.711792,421.359863 1262.380249,422.663757 1233.750610,430.515167 
	C1164.491577,449.508911 1111.958374,490.379242 1075.946289,553.447449 
M1287.324829,774.837830 
	C1298.451172,757.877625 1309.119507,740.595093 1320.790527,724.018433 
	C1354.108398,676.695984 1386.982056,629.023499 1421.632446,582.686768 
	C1458.201660,533.784363 1496.639771,486.280121 1534.211548,438.126251 
	C1542.085571,428.034332 1550.175415,418.066956 1557.355225,407.491882 
	C1562.580078,399.796326 1560.381714,394.932953 1551.227783,394.109772 
	C1541.197266,393.207764 1530.953613,393.245026 1520.916016,394.141418 
	C1497.168091,396.262360 1475.714600,404.126801 1460.277954,423.359528 
	C1435.283325,454.501068 1410.143188,485.554321 1386.111206,517.434021 
	C1342.729736,574.981995 1303.540894,635.421631 1265.080811,696.329712 
	C1262.512573,700.397095 1259.917603,704.497131 1256.876221,708.205688 
	C1251.313721,714.988403 1246.744141,714.822388 1242.894165,707.109924 
	C1238.391724,698.090454 1234.818237,688.602417 1230.948242,679.273499 
	C1227.208740,670.259338 1224.138306,660.921875 1219.783325,652.222351 
	C1215.829834,644.324707 1208.978271,640.462402 1199.616577,641.809387 
	C1181.993164,644.345032 1167.393677,652.704163 1154.741699,664.768860 
	C1147.417969,671.752747 1144.768433,680.449524 1147.630859,690.260010 
	C1155.138428,715.988770 1162.642212,741.723267 1170.611450,767.310852 
	C1175.151855,781.888855 1180.859741,796.066589 1189.807251,808.661011 
	C1192.951782,813.087219 1196.531006,817.278992 1202.328857,817.737305 
	C1217.757202,818.956909 1233.233521,820.421570 1248.582764,816.986633 
	C1256.631592,815.185425 1263.417480,811.427368 1268.036987,804.191833 
	C1274.206665,794.527832 1280.625977,785.023193 1287.324829,774.837830 
z"/>
<path fill="#02B5B3" opacity="1.000000" stroke="none" 
	d="
M432.815735,952.662720 
	C434.387695,950.295410 435.857788,948.099060 437.695587,946.272888 
	C462.238556,921.884888 486.783966,897.498962 511.428040,873.213257 
	C537.322998,847.694702 563.328796,822.288513 589.277588,796.824524 
	C598.305542,787.965332 607.188904,778.952942 616.418884,770.310303 
	C618.358032,768.494507 621.523987,767.044434 624.133301,767.030457 
	C662.618164,766.823303 701.104858,766.964294 739.590027,766.784790 
	C744.101135,766.763794 745.156311,768.132202 745.111023,772.451660 
	C744.894592,793.108459 745.018921,813.768921 745.013306,834.428040 
	C745.003967,868.887451 752.599792,901.264282 770.326599,931.175476 
	C786.516418,958.493042 808.439575,979.671692 835.830505,995.492737 
	C851.508240,1004.548218 868.246521,1010.941223 885.896301,1014.342102 
	C898.848389,1016.837708 912.145203,1018.790222 925.294128,1018.825073 
	C1049.747925,1019.154968 1174.203003,1019.041687 1298.657593,1018.934082 
	C1302.825195,1018.930481 1305.736816,1020.099365 1308.695312,1023.044678 
	C1337.712891,1051.933105 1366.857788,1080.694092 1396.015503,1109.441528 
	C1408.077271,1121.333496 1420.252319,1133.110229 1432.396118,1144.918579 
	C1433.215942,1145.715820 1434.206909,1146.337036 1435.285889,1147.208984 
	C1419.533813,1168.794556 1400.702515,1187.242920 1378.970459,1202.723877 
	C1341.209473,1229.622925 1299.101562,1246.939331 1254.594727,1258.860840 
	C1227.578979,1266.097290 1200.147339,1271.372925 1172.292969,1273.895630 
	C1151.509399,1275.777710 1130.636108,1276.671021 1109.802368,1277.998291 
	C1104.372803,1278.344116 1098.928589,1279.087402 1093.513672,1278.919678 
	C1078.327515,1278.449219 1063.143799,1277.754883 1047.975830,1276.865601 
	C1015.721436,1274.974976 983.720764,1270.919434 951.900757,1265.332886 
	C888.069946,1254.126343 826.089355,1236.391357 765.943115,1212.336548 
	C678.645752,1177.422974 598.137024,1131.210327 528.009216,1067.988037 
	C491.942230,1035.472534 460.303009,999.189697 435.316620,957.362671 
	C434.464081,955.935425 433.693573,954.459167 432.815735,952.662720 
z"/>
<path fill="#004D82" opacity="1.000000" stroke="none" 
	d="
M423.028687,1369.790283 
	C427.371521,1386.619629 431.646454,1403.036499 436.029480,1419.424438 
	C438.188202,1427.495972 440.546967,1435.513916 443.661469,1443.620605 
	C445.775970,1435.564575 447.888367,1427.507935 450.005402,1419.452637 
	C456.003723,1396.628784 461.998016,1373.803955 468.008148,1350.983276 
	C469.324890,1345.983398 470.453400,1340.909546 472.206940,1336.064697 
	C472.704468,1334.689941 475.039185,1333.281616 476.642578,1333.138916 
	C481.107025,1332.741577 485.631897,1332.917480 490.129120,1333.024414 
	C494.305664,1333.123779 495.536652,1334.953369 494.413788,1339.112915 
	C488.138428,1362.359619 481.854279,1385.604004 475.573944,1408.849365 
	C469.125793,1432.716187 462.672729,1456.581787 456.252686,1480.456177 
	C456.000214,1481.395020 456.165649,1482.440186 455.968018,1483.401123 
	C455.107269,1487.586060 453.643982,1490.817383 448.220734,1490.081421 
	C444.620483,1489.593018 440.876678,1489.730103 437.240387,1490.061523 
	C433.567902,1490.396118 431.834381,1488.915771 430.970886,1485.491577 
	C427.058655,1469.977173 423.015991,1454.495728 419.054230,1438.993652 
	C415.251221,1424.112915 411.488159,1409.221924 407.711334,1394.334473 
	C406.102509,1387.992798 404.503326,1381.648560 401.945648,1375.321167 
	C397.297028,1394.482788 392.692383,1413.655396 387.986725,1432.802979 
	C383.742981,1450.070801 379.244598,1467.277710 375.187012,1484.588501 
	C374.203033,1488.786499 372.445435,1490.461548 368.187866,1490.048706 
	C365.050842,1489.744385 361.834747,1489.733032 358.700256,1490.049927 
	C354.235962,1490.501465 352.072571,1488.469238 350.963409,1484.375732 
	C347.077942,1470.035889 343.011536,1455.744873 339.108643,1441.409668 
	C332.699158,1417.867798 326.381927,1394.300903 319.989136,1370.754395 
	C317.026764,1359.843262 314.182281,1348.892700 310.859344,1338.090820 
	C309.671997,1334.231079 311.300751,1333.183716 314.305145,1333.060303 
	C319.462891,1332.848267 324.714142,1332.487671 329.762695,1333.259277 
	C331.736206,1333.560669 334.212677,1336.476562 334.847412,1338.668701 
	C338.799500,1352.317749 342.318604,1366.093018 345.933533,1379.838989 
	C349.427460,1393.125000 352.873169,1406.423584 356.321960,1419.721436 
	C358.268921,1427.228516 360.162994,1434.749268 362.139435,1442.248535 
	C362.287689,1442.811035 362.906769,1443.249634 363.364624,1443.817139 
	C368.877960,1422.241943 374.402191,1400.876709 379.783417,1379.475586 
	C383.294098,1365.513794 386.778107,1351.539307 389.870239,1337.481812 
	C390.679138,1333.804321 392.394470,1332.914795 395.626984,1332.976196 
	C400.458344,1333.067993 405.311127,1332.764282 410.115173,1333.137939 
	C411.644958,1333.256836 413.996185,1334.730835 414.361237,1336.035278 
	C417.453735,1347.086548 420.173584,1358.241943 423.028687,1369.790283 
z"/>
<path fill="#004E82" opacity="1.000000" stroke="none" 
	d="
M1385.995117,1456.929199 
	C1380.800659,1445.381226 1375.726562,1434.186523 1370.423584,1423.101196 
	C1369.920044,1422.048462 1367.994507,1421.108521 1366.712280,1421.086182 
	C1357.058716,1420.919067 1347.400879,1420.995117 1337.000854,1420.995117 
	C1337.000854,1422.851807 1337.000854,1424.596924 1337.000854,1426.342041 
	C1337.000854,1445.329956 1337.005371,1464.317993 1336.998413,1483.305908 
	C1336.996216,1489.444946 1336.488892,1489.963257 1330.554443,1489.984741 
	C1326.890137,1489.998169 1323.208984,1489.768066 1319.565918,1490.045898 
	C1315.552734,1490.351807 1314.397949,1488.068604 1314.031616,1484.796997 
	C1313.921143,1483.809937 1314.012695,1482.800293 1314.012695,1481.800903 
	C1314.012695,1434.997314 1314.030029,1388.193604 1313.997803,1341.390015 
	C1313.991577,1332.348755 1316.161621,1332.876221 1322.366455,1332.933960 
	C1341.519287,1333.112305 1360.674805,1332.996460 1379.829346,1333.000244 
	C1397.736206,1333.003784 1416.006836,1344.484863 1420.325684,1362.955322 
	C1425.210693,1383.847168 1421.986328,1402.836548 1400.761108,1415.613770 
	C1398.988159,1416.681396 1396.942017,1417.498291 1394.917358,1417.899292 
	C1391.429688,1418.589966 1391.644653,1420.201660 1392.937744,1422.824951 
	C1400.812500,1438.801392 1408.597900,1454.822021 1416.376709,1470.845581 
	C1418.495239,1475.209717 1420.607788,1479.584106 1422.504761,1484.046509 
	C1424.237305,1488.121582 1422.955078,1489.916504 1418.512695,1489.976318 
	C1414.682495,1490.027954 1410.834839,1489.766235 1407.024414,1490.045776 
	C1402.709351,1490.362183 1400.607300,1488.148926 1398.960083,1484.553955 
	C1394.774780,1475.419800 1390.369507,1466.386475 1385.995117,1456.929199 
M1376.189087,1352.917969 
	C1363.264893,1352.917969 1350.340576,1352.917969 1337.000977,1352.917969 
	C1337.000977,1361.488403 1337.000977,1369.597168 1337.000977,1377.705933 
	C1337.000977,1385.784668 1337.000977,1393.863403 1337.000977,1402.081421 
	C1350.655640,1402.081421 1363.622559,1402.183960 1376.587036,1402.048340 
	C1386.525269,1401.944336 1393.516846,1396.945923 1397.493896,1388.025757 
	C1401.507812,1379.022705 1399.183960,1366.543091 1393.445557,1360.639282 
	C1388.810059,1355.870117 1383.362793,1353.798096 1376.189087,1352.917969 
z"/>
<path fill="#004D82" opacity="1.000000" stroke="none" 
	d="
M550.007080,1354.001343 
	C550.007812,1348.502319 549.910645,1343.500488 550.042419,1338.504517 
	C550.136536,1334.936768 551.531250,1332.629517 555.767517,1332.940796 
	C559.579773,1333.220947 563.436707,1333.153687 567.259644,1332.959229 
	C571.612549,1332.737915 573.075073,1334.703247 573.050232,1338.901367 
	C572.933838,1358.564697 572.999084,1378.229248 572.999390,1397.893311 
	C572.999390,1398.710327 572.999329,1399.527344 572.999329,1400.672119 
	C594.264465,1400.672119 615.327881,1400.672119 636.999878,1400.672119 
	C636.999878,1398.989990 636.999878,1397.225342 636.999878,1395.460693 
	C636.999878,1376.463135 637.138489,1357.463867 636.898376,1338.469360 
	C636.841309,1333.954346 638.305725,1332.565063 642.620483,1332.932251 
	C646.425781,1333.255859 650.297974,1333.230347 654.108704,1332.940186 
	C658.645508,1332.594849 659.876282,1335.115479 659.978149,1338.879028 
	C660.050293,1341.543457 659.992065,1344.211304 659.992065,1346.877686 
	C659.992065,1391.371948 659.992493,1435.866211 659.991638,1480.360474 
	C659.991455,1489.339844 659.362488,1490.004028 650.678528,1489.984497 
	C635.385742,1489.950195 637.023193,1491.653687 637.003357,1476.535278 
	C636.979675,1458.537842 636.982605,1440.540527 636.963501,1422.543091 
	C636.963196,1422.231201 636.829712,1421.919434 636.688599,1421.302734 
	C615.688904,1421.302734 594.625977,1421.302734 572.998535,1421.302734 
	C572.998535,1422.893188 572.998596,1424.496948 572.998596,1426.100708 
	C572.998596,1445.264893 572.899841,1464.429932 573.069336,1483.592651 
	C573.110596,1488.263550 571.593079,1490.370605 566.753723,1490.040283 
	C562.938660,1489.779907 559.073486,1489.757202 555.263977,1490.054932 
	C551.693115,1490.333984 550.649292,1488.189697 550.071655,1485.474365 
	C549.800110,1484.197632 550.007996,1482.817871 550.007935,1481.484741 
	C550.006897,1439.156860 550.007080,1396.828857 550.007080,1354.001343 
z"/>
<path fill="#004D82" opacity="1.000000" stroke="none" 
	d="
M1579.761475,1353.404541 
	C1584.176636,1361.444092 1586.643311,1369.505127 1586.125977,1378.499756 
	C1585.897705,1382.468750 1583.990356,1383.620850 1580.738647,1383.967773 
	C1579.585693,1384.090820 1578.408569,1383.988892 1577.242554,1383.989014 
	C1564.787964,1383.990479 1565.406738,1383.857300 1562.804565,1371.768677 
	C1560.580078,1361.434204 1552.669189,1355.130005 1542.857544,1352.613647 
	C1533.859863,1350.305908 1524.363525,1350.054321 1515.261108,1353.051270 
	C1503.972778,1356.768066 1497.598145,1370.804932 1503.277100,1381.108032 
	C1507.245117,1388.307007 1514.813599,1391.925171 1522.333740,1395.000122 
	C1535.332764,1400.315430 1548.515747,1405.245361 1561.226318,1411.183105 
	C1572.725586,1416.554932 1582.303955,1424.593872 1585.902954,1437.435425 
	C1590.741943,1454.701904 1584.783081,1473.120728 1567.644165,1483.052734 
	C1558.284058,1488.477051 1548.362793,1491.741821 1537.405396,1490.987793 
	C1528.572510,1490.380005 1519.468140,1490.811279 1510.978394,1488.748169 
	C1494.978516,1484.859985 1478.825928,1472.513550 1477.961304,1453.512085 
	C1477.812866,1450.249756 1477.383057,1446.996094 1476.987427,1443.750244 
	C1476.471436,1439.519409 1478.950317,1438.155884 1482.512085,1438.037842 
	C1486.505493,1437.905518 1490.585938,1437.548828 1494.468262,1438.218384 
	C1496.182129,1438.513916 1498.239502,1440.855835 1498.843384,1442.694824 
	C1500.041260,1446.343872 1499.748535,1450.517944 1501.127197,1454.064941 
	C1504.362183,1462.388062 1511.036743,1467.332397 1519.412476,1469.682251 
	C1529.622437,1472.546631 1539.805420,1472.904663 1550.098389,1469.130005 
	C1562.080078,1464.736328 1568.594116,1452.190918 1562.672119,1441.157471 
	C1560.073486,1436.315552 1554.749023,1432.158203 1549.698730,1429.571533 
	C1538.937744,1424.060181 1527.478760,1419.930298 1516.433350,1414.951050 
	C1504.909058,1409.756104 1493.062500,1405.037964 1485.379395,1393.973877 
	C1479.846802,1386.006958 1477.926025,1377.033081 1479.338623,1367.924805 
	C1480.344238,1361.441162 1483.055054,1354.787598 1486.604248,1349.231689 
	C1492.323608,1340.278931 1501.803345,1335.633301 1511.807861,1333.259644 
	C1524.628174,1330.217773 1537.561401,1329.918457 1550.592773,1333.723145 
	C1562.466431,1337.189697 1572.399780,1342.895264 1579.761475,1353.404541 
z"/>
<path fill="#004D82" opacity="1.000000" stroke="none" 
	d="
M887.500122,1334.215332 
	C896.600586,1337.836304 904.793030,1342.035889 910.985718,1349.451782 
	C918.585388,1358.552612 920.779236,1369.163818 919.795471,1380.577759 
	C919.688538,1381.818481 917.237549,1383.281494 915.599548,1383.846680 
	C913.960083,1384.412842 911.976685,1383.987793 910.144043,1383.988037 
	C898.720886,1383.989624 898.553589,1384.011719 897.056335,1373.121460 
	C895.399353,1361.069336 886.504944,1354.644897 875.936951,1352.351318 
	C867.032959,1350.419189 857.597168,1349.932251 848.473083,1353.767456 
	C841.135437,1356.851807 836.921387,1361.747070 836.012695,1369.534302 
	C834.999573,1378.215576 837.840820,1385.387085 845.838867,1389.236816 
	C856.868713,1394.545898 868.273376,1399.072632 879.482910,1404.013062 
	C891.385681,1409.259155 903.703613,1413.776123 912.615173,1424.058228 
	C920.116760,1432.713379 922.530762,1442.504761 921.199768,1453.829834 
	C920.163757,1462.645142 916.814758,1470.229004 910.891602,1476.389893 
	C904.034363,1483.522339 895.198242,1488.370972 885.540771,1489.749023 
	C870.281250,1491.926147 854.790955,1493.035156 839.876038,1487.030151 
	C824.268738,1480.746338 813.604797,1470.467285 811.985168,1452.791992 
	C811.716797,1449.863525 811.204529,1446.952515 811.041504,1444.020386 
	C810.817810,1439.995361 812.837036,1437.959595 816.917236,1437.999023 
	C820.249146,1438.031250 823.581787,1437.986694 826.913879,1438.008911 
	C832.368774,1438.045532 834.341858,1439.436157 833.879395,1444.869751 
	C832.618896,1459.681519 846.153259,1468.891113 859.106567,1471.031372 
	C867.303162,1472.385620 875.201904,1472.142090 883.226929,1469.478760 
	C893.493469,1466.071411 898.356689,1458.639038 898.922913,1450.435059 
	C899.579590,1440.920044 894.110718,1434.610107 886.201782,1430.798584 
	C873.125183,1424.497070 859.711853,1418.894287 846.441772,1412.993896 
	C835.532471,1408.143433 824.933044,1403.023071 818.436707,1392.088623 
	C814.476685,1385.423218 813.689697,1378.424805 813.874451,1370.917969 
	C814.059692,1363.390259 815.442871,1356.478271 819.924988,1350.219360 
	C826.751587,1340.686401 836.304016,1335.717896 847.346497,1332.997559 
	C860.706177,1329.706299 873.946777,1330.633545 887.500122,1334.215332 
z"/>
<path fill="#014E83" opacity="1.000000" stroke="none" 
	d="
M1193.000000,1420.977173 
	C1185.523682,1420.977173 1178.547485,1420.977173 1171.246094,1420.977173 
	C1171.246094,1437.282959 1171.246094,1453.338623 1171.246094,1470.000854 
	C1172.961182,1470.000854 1174.728271,1470.000854 1176.495239,1470.000854 
	C1199.816528,1470.000977 1223.139038,1470.121948 1246.458252,1469.903442 
	C1251.365356,1469.857544 1252.941528,1471.899536 1252.974121,1476.304688 
	C1253.095581,1492.677368 1252.933472,1489.885132 1239.832031,1489.915771 
	C1211.513428,1489.981812 1183.194580,1489.939331 1154.875854,1489.933228 
	C1148.499146,1489.931885 1148.002686,1489.448730 1148.001831,1483.144287 
	C1147.995361,1435.335571 1147.995361,1387.526978 1148.002197,1339.718262 
	C1148.003052,1333.613037 1148.588013,1333.004028 1154.460693,1333.002319 
	C1185.111572,1332.993164 1215.762939,1333.091919 1246.412598,1332.901245 
	C1251.264526,1332.871094 1252.965820,1334.791016 1252.970337,1339.232788 
	C1252.984131,1353.115356 1254.057007,1353.053345 1239.702271,1352.956177 
	C1218.547485,1352.812744 1197.390991,1352.919067 1176.235229,1352.919067 
	C1174.614014,1352.919067 1172.992920,1352.919067 1171.148682,1352.919067 
	C1171.148682,1369.090210 1171.148682,1384.818726 1171.148682,1400.997681 
	C1186.295654,1400.997681 1201.241821,1401.041260 1216.187866,1400.984375 
	C1228.926025,1400.935791 1228.079346,1400.201172 1228.009644,1412.844971 
	C1227.964722,1420.973633 1228.000244,1420.975220 1219.986450,1420.976807 
	C1211.157593,1420.978394 1202.328857,1420.977173 1193.000000,1420.977173 
z"/>
<path fill="#014E83" opacity="1.000000" stroke="none" 
	d="
M1004.001953,1460.000000 
	C1004.001892,1468.329834 1003.843506,1476.164185 1004.061829,1483.987915 
	C1004.190002,1488.581421 1002.288879,1490.299194 997.833557,1490.014282 
	C994.349365,1489.791382 990.816284,1489.714355 987.346619,1490.030396 
	C982.343018,1490.486450 980.989441,1487.826416 981.016602,1483.554321 
	C981.047363,1478.723267 981.023987,1473.891968 981.023926,1469.060791 
	C981.023743,1425.913330 981.021667,1382.765747 981.025208,1339.618286 
	C981.025696,1333.495728 981.501282,1333.004395 987.518005,1333.001709 
	C1007.509094,1332.992432 1027.505859,1332.698730 1047.489868,1333.075317 
	C1071.642334,1333.530273 1089.843628,1350.911255 1090.063843,1375.416504 
	C1090.162720,1386.418701 1089.015503,1396.805542 1082.054565,1405.992432 
	C1074.716187,1415.677368 1064.906006,1421.842529 1053.262085,1422.695557 
	C1037.123047,1423.877808 1020.832520,1422.992554 1004.001953,1422.992554 
	C1004.001953,1435.976929 1004.001953,1447.738525 1004.001953,1460.000000 
M1041.168091,1404.999023 
	C1046.797852,1403.196899 1053.196533,1402.535156 1057.902344,1399.362549 
	C1068.716187,1392.072021 1069.415527,1379.631836 1065.611328,1368.594116 
	C1061.960815,1358.002319 1054.736084,1353.254517 1041.578979,1352.900879 
	C1030.757812,1352.610107 1019.919495,1352.988892 1009.095337,1352.759277 
	C1005.393127,1352.680786 1004.046326,1354.027466 1004.058289,1357.536743 
	C1004.107056,1371.864136 1004.095093,1386.191772 1004.066223,1400.519409 
	C1004.059753,1403.726807 1005.154480,1405.164917 1008.744019,1405.083862 
	C1019.234436,1404.846436 1029.733643,1404.999512 1041.168091,1404.999023 
z"/>
<path fill="#024F83" opacity="1.000000" stroke="none" 
	d="
M749.919983,1436.000000 
	C749.919800,1452.145508 749.807922,1467.792236 749.987915,1483.435669 
	C750.041626,1488.103760 748.515625,1490.268799 743.648376,1489.930664 
	C740.004272,1489.677368 736.320862,1489.732544 732.668823,1489.919678 
	C728.836548,1490.116211 727.155579,1488.303589 727.020752,1484.682983 
	C726.983582,1483.685547 727.002991,1482.686035 727.002991,1481.687378 
	C727.002380,1434.750977 727.000366,1387.814697 727.004639,1340.878296 
	C727.005310,1333.354370 727.374390,1332.998657 734.894897,1332.996704 
	C737.890808,1332.995972 740.900330,1333.177490 743.879517,1332.954468 
	C748.493530,1332.609253 750.008301,1334.695435 749.975952,1339.130981 
	C749.841309,1357.604980 749.919800,1376.080566 749.919983,1394.555542 
	C749.920105,1408.203735 749.919983,1421.851807 749.919983,1436.000000 
z"/>
<path fill="#004E82" opacity="1.000000" stroke="none" 
	d="
M262.757294,1596.374023 
	C252.880356,1586.350464 255.851761,1571.044922 268.625336,1564.848145 
	C280.127319,1559.268433 299.268066,1561.362549 306.860626,1571.680542 
	C309.575409,1575.369873 310.809692,1580.395020 311.814362,1585.007690 
	C312.457642,1587.961182 309.781128,1589.072632 306.885742,1589.017334 
	C303.885895,1588.959961 300.173798,1589.461182 300.136780,1585.244629 
	C300.081238,1578.916382 296.288422,1575.251221 291.395996,1573.355835 
	C284.465515,1570.670898 276.712311,1570.708496 271.027222,1575.852295 
	C265.670471,1580.699341 267.095459,1588.255371 274.298462,1591.956909 
	C280.890442,1595.344360 287.901733,1597.905151 294.628510,1601.044067 
	C301.232544,1604.125732 308.536041,1606.996216 310.875946,1614.647217 
	C314.754578,1627.329102 310.688873,1636.505615 298.668518,1641.448486 
	C287.066833,1646.219238 275.071808,1645.607666 264.205688,1638.037476 
	C257.806488,1633.579102 255.453278,1627.311523 256.120178,1619.819580 
	C256.209808,1618.812378 257.746765,1617.294800 258.784332,1617.137207 
	C261.349976,1616.747314 264.014740,1617.009277 266.958344,1617.009277 
	C266.339478,1625.015381 269.463257,1630.665039 276.840363,1632.810791 
	C284.009979,1634.896362 291.442535,1635.640625 297.593994,1629.850220 
	C302.783386,1624.965820 302.272369,1617.605469 296.035217,1614.129517 
	C289.153473,1610.294434 281.690735,1607.517090 274.653473,1603.940063 
	C270.578613,1601.868774 266.843475,1599.129150 262.757294,1596.374023 
z"/>
<path fill="#004E83" opacity="1.000000" stroke="none" 
	d="
M460.999817,1650.027344 
	C460.999115,1654.179077 461.307434,1657.879272 460.834106,1661.476685 
	C460.662903,1662.777710 458.718842,1664.707275 457.413544,1664.856079 
	C449.607178,1665.745117 449.009033,1665.062744 449.008759,1657.218506 
	C449.008026,1635.094727 448.975769,1612.970947 449.059540,1590.847534 
	C449.067810,1588.661499 447.726227,1584.997192 451.713562,1585.163818 
	C455.223877,1585.310547 460.420746,1582.268066 461.647095,1589.862793 
	C466.462830,1583.701782 472.701447,1583.374268 478.975067,1584.090698 
	C484.327240,1584.702026 489.160004,1587.230713 492.083679,1591.790649 
	C494.458221,1595.494385 496.673157,1599.756348 497.316772,1604.018677 
	C498.661194,1612.921631 499.209381,1622.068481 495.655853,1630.703979 
	C490.280396,1643.767578 473.435974,1648.946411 460.999817,1638.274170 
	C460.999817,1642.548462 460.999817,1646.041870 460.999817,1650.027344 
M475.193634,1594.001465 
	C468.762909,1592.697632 463.915894,1597.923462 462.264648,1603.705688 
	C460.131104,1611.177124 460.434143,1618.895752 463.123169,1626.322021 
	C465.996582,1634.257568 475.885864,1636.986694 481.343628,1630.789673 
	C484.149353,1627.604004 485.507263,1622.848267 486.671387,1618.571167 
	C489.400940,1608.542236 484.293335,1597.282349 475.193634,1594.001465 
z"/>
<path fill="#004E82" opacity="1.000000" stroke="none" 
	d="
M1073.015381,1600.286377 
	C1077.881226,1584.916626 1091.497437,1581.788452 1101.493896,1585.074951 
	C1103.874268,1585.857544 1105.957764,1587.542725 1108.770630,1589.152100 
	C1108.770630,1580.422607 1108.770630,1571.934204 1108.770630,1563.231689 
	C1112.662354,1563.231689 1115.943848,1563.231689 1119.614868,1563.231689 
	C1119.614868,1589.494751 1119.614868,1615.889526 1119.614868,1642.642944 
	C1116.446411,1642.642944 1113.044556,1642.642944 1109.161011,1642.642944 
	C1109.084229,1641.442871 1108.993652,1640.027832 1108.900391,1638.572388 
	C1108.600464,1638.572388 1108.145020,1638.442017 1108.018555,1638.591064 
	C1099.421387,1648.709351 1078.684570,1645.619507 1073.248779,1628.140259 
	C1070.488647,1619.264771 1070.302490,1609.875610 1073.015381,1600.286377 
M1094.799683,1594.000122 
	C1091.966309,1595.750244 1087.809326,1596.835205 1086.535645,1599.369263 
	C1081.794678,1608.801636 1081.071045,1618.831909 1086.248047,1628.451050 
	C1088.615723,1632.850586 1093.284058,1635.281982 1097.912842,1633.720093 
	C1101.350586,1632.560181 1105.350708,1629.413940 1106.611206,1626.181641 
	C1109.658936,1618.367310 1109.256104,1609.930664 1106.867676,1601.840210 
	C1105.384521,1596.815430 1101.118286,1594.133545 1094.799683,1594.000122 
z"/>
<path fill="#004E83" opacity="1.000000" stroke="none" 
	d="
M974.992798,1621.000732 
	C974.992737,1626.830078 975.059631,1632.161133 974.963379,1637.489136 
	C974.917725,1640.014648 975.327393,1643.324463 971.294189,1642.920532 
	C967.966370,1642.587280 962.594849,1645.538208 962.817505,1638.091553 
	C955.194946,1643.636719 947.161316,1645.517212 938.141968,1643.065796 
	C932.640747,1641.570679 928.795471,1638.412720 927.140137,1633.108521 
	C925.228333,1626.982910 925.423584,1621.039673 929.803467,1615.638428 
	C935.308777,1608.849487 942.983582,1607.694336 950.855530,1607.065430 
	C954.791077,1606.750977 958.772522,1607.010620 962.820312,1607.010620 
	C963.379944,1601.468506 962.662720,1596.738525 957.223877,1594.867065 
	C951.656982,1592.951416 945.036926,1593.315796 942.171753,1597.276978 
	C941.059570,1598.814453 939.722290,1601.296997 938.397339,1601.357056 
	C934.964722,1601.512451 931.481934,1600.560547 927.991333,1600.046509 
	C929.775574,1590.305908 937.731079,1584.985474 946.600708,1584.135742 
	C951.100952,1583.704468 955.808044,1584.273560 960.292175,1585.096069 
	C967.508850,1586.419434 973.381897,1593.314087 973.964905,1600.757568 
	C974.479309,1607.325317 974.663025,1613.918945 974.992798,1621.000732 
M937.986755,1626.420166 
	C939.190247,1628.338745 939.972046,1630.845581 941.675476,1632.066772 
	C947.010010,1635.891113 952.787170,1634.455200 957.814087,1631.533569 
	C963.175415,1628.417847 963.936523,1623.040527 962.559204,1616.998535 
	C957.702881,1616.998535 952.896667,1616.753784 948.125610,1617.059082 
	C941.864502,1617.459717 939.146912,1619.965332 937.986755,1626.420166 
z"/>
<path fill="#004E83" opacity="1.000000" stroke="none" 
	d="
M1498.710083,1590.809814 
	C1509.581055,1580.540527 1530.138184,1582.160889 1537.020508,1591.693604 
	C1538.920654,1594.325684 1540.731079,1597.733765 1540.822876,1600.837891 
	C1541.230835,1614.636597 1540.999756,1628.454346 1540.999756,1642.632812 
	C1537.469482,1642.632812 1534.073853,1642.632812 1530.179443,1642.632812 
	C1530.093750,1641.450684 1529.992065,1640.047974 1529.868042,1638.336914 
	C1528.804321,1638.799438 1527.725586,1639.068359 1526.880737,1639.667480 
	C1519.808472,1644.682373 1512.003540,1645.242065 1504.036987,1642.887573 
	C1496.997681,1640.807129 1493.062256,1635.000854 1493.000122,1627.915283 
	C1492.919189,1618.685547 1496.261475,1612.127075 1503.741211,1610.168457 
	C1512.025146,1607.999268 1520.670044,1607.208252 1529.550537,1605.752686 
	C1530.474609,1601.402466 1528.284058,1596.450684 1523.813110,1594.346924 
	C1520.250854,1592.670532 1510.617798,1594.647339 1508.108887,1597.569458 
	C1504.486938,1601.787964 1500.977661,1602.298950 1494.538208,1599.156006 
	C1495.835571,1596.468262 1497.137329,1593.771362 1498.710083,1590.809814 
M1524.406006,1616.953491 
	C1520.906860,1616.970581 1517.391113,1616.778809 1513.912598,1617.055054 
	C1509.000244,1617.445068 1505.286499,1621.195190 1504.899658,1625.184692 
	C1504.429077,1630.037476 1506.892700,1633.108643 1511.107788,1633.836304 
	C1520.267578,1635.417969 1532.688599,1630.767700 1529.634766,1617.167847 
	C1528.272461,1617.099365 1526.821167,1617.026367 1524.406006,1616.953491 
z"/>
<path fill="#004E82" opacity="1.000000" stroke="none" 
	d="
M793.245972,1620.553955 
	C793.803711,1627.409180 797.361084,1631.994019 803.252319,1633.521973 
	C811.093872,1635.555786 818.141663,1633.500610 822.487732,1625.637573 
	C824.107117,1626.594238 825.328186,1627.356689 826.586914,1628.050781 
	C829.233459,1629.510010 829.626953,1630.939697 827.855286,1633.827759 
	C822.715515,1642.206787 811.071594,1645.426514 801.939148,1643.817383 
	C789.990173,1641.712036 784.742249,1633.509521 783.234802,1624.013672 
	C782.076111,1616.715088 782.128113,1608.953491 783.218262,1601.632568 
	C784.817810,1590.890747 794.168091,1584.332520 805.086121,1583.903687 
	C814.556580,1583.531616 822.563354,1585.970459 826.921326,1594.721802 
	C829.218262,1599.334351 830.391785,1604.791504 830.839600,1609.973755 
	C831.529785,1617.961304 831.080505,1618.000122 822.774536,1618.000244 
	C813.958069,1618.000244 805.140198,1617.924438 796.327026,1618.096069 
	C795.221130,1618.117554 794.140686,1619.443970 793.245972,1620.553955 
M803.536316,1609.005615 
	C808.966980,1609.005615 814.397583,1609.005615 819.878174,1609.005615 
	C818.242920,1594.866577 811.109497,1593.120483 803.372498,1594.081421 
	C797.221680,1594.845581 793.190552,1601.956421 794.666077,1609.005615 
	C797.261597,1609.005615 799.905884,1609.005615 803.536316,1609.005615 
z"/>
<path fill="#004D82" opacity="1.000000" stroke="none" 
	d="
M1167.941040,1597.244995 
	C1175.728516,1581.644165 1195.061523,1580.337280 1205.442139,1588.520874 
	C1209.393921,1591.636230 1211.798706,1597.419189 1213.513306,1602.460815 
	C1215.096558,1607.116089 1214.812378,1612.406738 1215.405151,1617.925171 
	C1202.253296,1617.925171 1189.841064,1617.925171 1177.492310,1617.925171 
	C1176.462891,1625.950562 1178.958618,1631.332397 1185.938477,1633.214966 
	C1194.095581,1635.414795 1199.528076,1634.855835 1206.061279,1625.775391 
	C1208.448364,1627.294067 1210.851807,1628.823120 1213.199341,1630.316650 
	C1208.053101,1640.689087 1199.066528,1645.557983 1186.302856,1643.840454 
	C1177.008423,1642.589600 1170.768921,1637.028931 1167.812256,1627.600098 
	C1164.637573,1617.475708 1164.592896,1607.615967 1167.941040,1597.244995 
M1182.085327,1596.372437 
	C1178.216675,1600.042236 1177.096802,1604.630249 1177.072388,1609.738525 
	C1186.002075,1609.738525 1194.390137,1609.738525 1202.729492,1609.738525 
	C1203.859253,1604.117065 1202.076050,1599.563232 1197.866211,1596.483765 
	C1193.186646,1593.060913 1187.917480,1592.885010 1182.085327,1596.372437 
z"/>
<path fill="#014E83" opacity="1.000000" stroke="none" 
	d="
M1603.929932,1643.438965 
	C1590.491577,1639.534546 1586.700073,1631.454956 1585.205933,1619.225586 
	C1584.485596,1613.328735 1585.169678,1606.992310 1586.542847,1601.167114 
	C1588.955200,1590.933472 1598.649170,1582.541382 1613.667603,1584.033936 
	C1623.001221,1584.961304 1631.687500,1589.763672 1634.832886,1602.969604 
	C1637.126587,1612.599365 1636.926758,1622.256714 1632.165283,1631.537354 
	C1627.890991,1639.868164 1621.036377,1643.414673 1612.186646,1643.961914 
	C1609.553223,1644.124878 1606.890991,1643.822388 1603.929932,1643.438965 
M1599.912109,1599.562988 
	C1595.232300,1606.968140 1596.430054,1615.153442 1597.646240,1622.963013 
	C1598.713257,1629.814941 1604.651978,1634.055420 1610.659790,1633.999146 
	C1616.920410,1633.940552 1621.590698,1630.059326 1622.977783,1622.508911 
	C1623.945312,1617.242676 1624.385254,1611.673950 1623.791870,1606.382568 
	C1623.163330,1600.778320 1620.036743,1595.686401 1614.168579,1594.262939 
	C1609.039185,1593.018921 1603.702637,1593.618896 1599.912109,1599.562988 
z"/>
<path fill="#004E83" opacity="1.000000" stroke="none" 
	d="
M585.792908,1635.704590 
	C577.078186,1646.121216 560.746826,1646.775635 550.187073,1638.535522 
	C544.657166,1634.220581 542.535950,1627.730591 541.580994,1621.054810 
	C540.015503,1610.111206 540.485352,1599.358398 548.746826,1590.846924 
	C560.011169,1579.241455 584.978149,1581.257812 590.320312,1600.828491 
	C593.275269,1611.653809 593.331665,1622.404297 588.030151,1632.688232 
	C587.517822,1633.682007 586.712952,1634.524902 585.792908,1635.704590 
M569.050964,1633.963257 
	C575.190430,1632.417114 578.876343,1628.084595 579.809509,1622.277100 
	C580.668945,1616.927734 580.323547,1611.307861 579.915222,1605.851440 
	C579.420654,1599.243530 574.304016,1594.335938 568.347595,1593.999023 
	C561.198547,1593.594604 555.174988,1597.687622 554.059570,1604.479858 
	C553.214783,1609.624390 552.592346,1615.007568 553.169617,1620.138428 
	C554.148804,1628.842529 559.384338,1634.548706 569.050964,1633.963257 
z"/>
<path fill="#004E82" opacity="1.000000" stroke="none" 
	d="
M366.992950,1602.003906 
	C366.993896,1608.666626 366.986969,1614.830444 366.997681,1620.994141 
	C367.011780,1629.104126 371.205505,1633.974731 378.309052,1633.984619 
	C386.014709,1633.995483 390.974457,1629.504395 390.993378,1620.719971 
	C391.018524,1609.064453 390.999603,1597.408936 390.999603,1585.376831 
	C394.513214,1585.376831 397.909912,1585.376831 401.656860,1585.376831 
	C401.656860,1604.225464 401.656860,1623.285522 401.656860,1642.673828 
	C398.376709,1642.673828 394.969696,1642.673828 391.199860,1642.673828 
	C391.100464,1641.376587 390.991882,1639.959351 390.882294,1638.529175 
	C390.550964,1638.563843 390.123627,1638.475586 389.947266,1638.646484 
	C382.724091,1645.639526 374.299744,1645.277466 365.915863,1641.845947 
	C357.820007,1638.532593 355.335327,1631.111938 355.095520,1623.131348 
	C354.755432,1611.813477 355.162750,1600.474854 354.932953,1589.151611 
	C354.842102,1584.674438 357.458771,1584.763428 360.426208,1585.025879 
	C363.216553,1585.272705 367.275848,1583.443359 367.028625,1589.012451 
	C366.844147,1593.168945 366.992706,1597.340210 366.992950,1602.003906 
z"/>
<path fill="#004E82" opacity="1.000000" stroke="none" 
	d="
M1411.142090,1609.634033 
	C1403.507690,1598.510376 1411.252930,1586.999146 1423.061523,1584.887451 
	C1432.784302,1583.148682 1441.666016,1583.707886 1448.678223,1591.358887 
	C1450.853027,1593.731812 1451.930786,1597.110229 1453.449829,1599.916016 
	C1447.423706,1604.776489 1443.708618,1604.372559 1441.175293,1598.456177 
	C1438.980347,1593.330688 1434.117188,1593.468018 1430.432129,1593.356812 
	C1427.032471,1593.254028 1422.891235,1595.381226 1420.279053,1597.816162 
	C1417.675537,1600.242920 1418.899536,1603.673584 1422.522827,1605.082520 
	C1427.167847,1606.888550 1432.067749,1608.082397 1436.609253,1610.099365 
	C1441.138550,1612.110962 1445.955078,1614.142700 1449.588135,1617.359863 
	C1456.253052,1623.261963 1453.549194,1635.758057 1446.250000,1639.889648 
	C1435.781616,1645.814819 1424.998169,1645.485352 1414.673218,1639.726074 
	C1410.909912,1637.626831 1407.547241,1634.095215 1408.130981,1629.029663 
	C1408.295898,1627.597778 1409.985596,1625.278687 1411.070068,1625.223755 
	C1413.830933,1625.083618 1418.027100,1623.455078 1418.849121,1627.803223 
	C1419.835449,1633.020386 1423.968628,1634.052002 1427.609253,1634.792847 
	C1432.251221,1635.737671 1437.256958,1635.390259 1440.563843,1630.908569 
	C1443.086914,1627.489258 1441.754028,1623.606201 1437.499146,1622.024292 
	C1432.821777,1620.285522 1427.931396,1619.042236 1423.415894,1616.968506 
	C1419.214355,1615.039062 1415.383911,1612.301636 1411.142090,1609.634033 
z"/>
<path fill="#004E82" opacity="1.000000" stroke="none" 
	d="
M1269.612061,1621.164062 
	C1270.492676,1629.491699 1275.502930,1633.173096 1279.462036,1633.943848 
	C1286.102539,1635.236328 1291.843018,1632.279297 1294.952271,1626.255127 
	C1296.567749,1623.125122 1304.138672,1622.162109 1306.279541,1624.959229 
	C1306.801514,1625.641235 1306.687622,1627.088257 1306.415649,1628.057129 
	C1302.785645,1640.995483 1289.407959,1645.987061 1277.047729,1643.516235 
	C1264.500854,1641.008179 1257.774414,1630.979370 1257.989258,1618.376587 
	C1258.120117,1610.704834 1257.155273,1602.880981 1261.060913,1595.745972 
	C1265.175781,1588.229004 1271.822388,1584.696045 1280.142578,1584.011230 
	C1290.131592,1583.188843 1298.524536,1586.046143 1304.251587,1594.788330 
	C1304.872314,1595.735962 1305.487183,1596.721436 1305.890869,1597.771729 
	C1308.079102,1603.464600 1307.450928,1604.394165 1301.310059,1605.023438 
	C1300.060425,1605.151489 1298.839355,1605.559082 1297.580200,1605.843384 
	C1295.489868,1602.831909 1293.582642,1599.659790 1291.256470,1596.832520 
	C1287.742432,1592.561646 1282.716309,1593.557739 1278.334473,1594.375610 
	C1273.906128,1595.202148 1270.773071,1598.748291 1270.164795,1603.164551 
	C1269.363892,1608.981201 1269.558350,1614.935059 1269.612061,1621.164062 
z"/>
<path fill="#004E82" opacity="1.000000" stroke="none" 
	d="
M725.989807,1619.924805 
	C726.535217,1624.369629 724.124573,1629.299683 729.332764,1631.728027 
	C731.148315,1632.574585 733.352661,1632.959595 735.368530,1632.924438 
	C739.265991,1632.857056 739.058594,1635.329468 739.010559,1637.934570 
	C738.964478,1640.430054 739.485107,1643.288940 735.498840,1642.990479 
	C731.594177,1642.698120 727.565979,1642.848267 723.821411,1641.898926 
	C717.715759,1640.351196 715.028931,1636.355957 715.010132,1630.093384 
	C714.974670,1618.290894 714.999878,1606.488159 714.999878,1594.333740 
	C713.588013,1594.213379 712.332825,1593.982544 711.087036,1594.025391 
	C708.212158,1594.124023 705.944214,1594.115112 705.883362,1590.022217 
	C705.824158,1586.043823 707.086304,1584.444214 711.042297,1584.984375 
	C714.125977,1585.405396 715.178162,1583.860474 715.037537,1580.896484 
	C714.873535,1577.441162 714.999268,1573.972046 714.999268,1570.670654 
	C715.606995,1570.351807 715.880798,1570.084351 716.158447,1570.080322 
	C728.068298,1569.909302 725.763123,1569.123047 725.985107,1579.719604 
	C726.019165,1581.344727 725.989807,1582.971191 725.989807,1585.000244 
	C729.696228,1585.000244 732.990723,1585.142822 736.267578,1584.963135 
	C740.098694,1584.752930 739.954773,1587.168335 740.037170,1589.841309 
	C740.126770,1592.743286 739.240479,1594.213867 736.081970,1594.038086 
	C732.944275,1593.863525 729.789368,1593.999878 725.989807,1593.999878 
	C725.989807,1602.604370 725.989807,1611.021118 725.989807,1619.924805 
z"/>
<path fill="#004D82" opacity="1.000000" stroke="none" 
	d="
M648.000000,1623.005127 
	C648.000000,1629.810669 648.000000,1636.117432 648.000000,1642.710205 
	C644.327576,1642.710205 640.930603,1642.710205 637.263062,1642.710205 
	C637.263062,1623.609375 637.263062,1604.544556 637.263062,1585.239380 
	C640.794067,1585.239380 644.206726,1585.239380 647.855103,1585.239380 
	C647.855103,1587.333374 647.855103,1589.285889 647.855103,1591.144287 
	C651.528442,1588.994629 654.967957,1586.729126 658.641663,1584.946533 
	C660.301880,1584.140869 662.590454,1583.697998 664.303345,1584.162354 
	C666.607239,1584.786987 670.915771,1584.305420 669.833496,1588.597168 
	C669.034119,1591.767090 670.294373,1596.769897 663.532043,1596.162109 
	C651.550232,1595.085083 648.797546,1601.642090 648.050415,1611.011963 
	C647.746643,1614.820435 648.000122,1618.673462 648.000000,1623.005127 
z"/>
<path fill="#004F83" opacity="1.000000" stroke="none" 
	d="
M1351.227173,1641.451050 
	C1351.034668,1623.892578 1351.181030,1606.757446 1350.903198,1589.629395 
	C1350.821533,1584.600342 1353.605591,1584.907104 1356.937622,1584.970703 
	C1360.124146,1585.031738 1363.176880,1584.319336 1363.086426,1589.510254 
	C1362.811279,1605.307495 1362.816284,1621.115356 1363.091064,1636.912598 
	C1363.173462,1641.643921 1361.933350,1643.855591 1357.021484,1642.993896 
	C1355.141602,1642.663940 1353.276123,1642.251831 1351.227173,1641.451050 
z"/>
<path fill="#004E82" opacity="1.000000" stroke="none" 
	d="
M1532.051392,1573.420410 
	C1527.352051,1575.586182 1523.166504,1575.805176 1518.803955,1573.042969 
	C1513.583130,1569.737061 1511.643311,1570.095825 1507.502319,1573.830078 
	C1501.661743,1570.862183 1501.460938,1569.282227 1506.394653,1565.121826 
	C1509.748779,1562.293213 1515.195068,1562.108154 1519.184814,1564.687012 
	C1524.584351,1568.177612 1527.098389,1568.057373 1532.056152,1563.855103 
	C1533.329102,1565.011963 1534.638428,1566.201782 1536.412354,1567.813843 
	C1535.001465,1569.644287 1533.659180,1571.385742 1532.051392,1573.420410 
z"/>
<path fill="#004E82" opacity="1.000000" stroke="none" 
	d="
M1363.850342,1572.345825 
	C1359.688843,1576.805908 1354.899292,1577.384399 1351.707642,1574.198486 
	C1349.320435,1571.815063 1348.174927,1569.331177 1349.961060,1565.898438 
	C1352.189941,1561.614136 1355.977173,1561.321289 1359.721313,1562.162476 
	C1362.827271,1562.860229 1364.471802,1565.462158 1364.017944,1568.951172 
	C1363.890015,1569.934326 1363.977661,1570.945557 1363.850342,1572.345825 
z"/>
<path fill="#FEFEFE" opacity="1.000000" stroke="none" 
	d="
M415.212280,729.742493 
	C414.914429,719.599670 414.485870,709.458130 414.382446,699.313293 
	C414.340515,695.203491 413.231323,693.443909 408.660645,693.529846 
	C393.666321,693.811768 378.653625,693.970703 363.666748,693.534180 
	C350.746277,693.157776 337.654480,692.987061 325.008270,690.689758 
	C315.099152,688.889587 305.185272,685.034729 296.273865,680.235413 
	C274.359802,668.433472 258.559509,650.686768 249.017944,627.482727 
	C243.187027,613.302612 240.813583,598.485413 240.800049,583.335876 
	C240.694199,464.839020 240.667603,346.342010 240.789291,227.845169 
	C240.823792,194.243454 252.219925,165.348846 278.092285,143.038651 
	C290.809357,132.072510 305.225220,123.918907 321.868835,121.053673 
	C334.064117,118.954239 346.527557,117.357208 358.873322,117.344360 
	C570.200989,117.124352 781.528931,117.212128 992.856812,117.146805 
	C1014.098755,117.140236 1034.306885,120.983284 1052.909912,131.589584 
	C1072.935303,143.006760 1087.516724,159.439392 1096.956543,180.398590 
	C1103.800659,195.594650 1106.442261,211.726242 1106.563477,228.272324 
	C1106.715942,249.104004 1106.413208,269.940491 1106.731323,290.768433 
	C1106.812134,296.058441 1104.932373,297.166290 1100.145142,297.156586 
	C1041.813599,297.038177 983.481567,297.127991 925.149841,297.062073 
	C889.027100,297.021210 855.459778,306.549469 825.616455,326.524078 
	C782.686951,355.257507 756.895447,395.825714 747.997375,446.814606 
	C746.575562,454.961975 746.142822,463.333313 745.925781,471.618713 
	C745.810608,476.011810 744.584778,477.166351 740.207336,477.161224 
	C634.376892,477.037750 528.546204,477.023346 422.715698,477.127991 
	C411.786804,477.138794 401.722839,479.758118 393.687897,488.266205 
	C375.880402,507.122284 385.178070,542.156311 410.148132,548.567383 
	C415.370331,549.908203 421.068420,549.688782 426.547485,549.691895 
	C530.378113,549.750916 634.208801,549.735168 738.039429,549.736328 
	C745.723694,549.736450 745.784424,549.742004 745.704651,557.319824 
	C745.648926,562.617676 745.398682,567.913513 744.622070,573.604004 
	C724.272949,575.636230 704.478333,576.763367 684.812805,579.017090 
	C640.653931,584.077881 597.744751,594.458008 556.537109,611.314148 
	C517.797729,627.160645 482.456757,648.357422 452.854828,678.365662 
	C437.789093,693.638245 425.473572,710.941772 415.212280,729.742493 
M659.350220,326.932678 
	C669.105286,320.269196 672.838318,310.532074 673.682983,299.221069 
	C675.262085,278.075836 660.397949,261.215912 639.297119,261.170197 
	C565.998718,261.011444 492.699188,260.977234 419.402161,261.326477 
	C413.235413,261.355865 406.464417,263.499664 401.045349,266.558746 
	C386.659119,274.679871 381.569763,291.707062 386.816528,310.384399 
	C390.612274,323.896393 403.610382,333.190002 420.144318,333.222351 
	C492.942963,333.364716 565.742004,333.296722 638.540955,333.252716 
	C645.804016,333.248322 652.711670,331.672119 659.350220,326.932678 
z"/>
<path fill="#ECF0F0" opacity="1.000000" stroke="none" 
	d="
M1076.115845,553.120239 
	C1111.958374,490.379242 1164.491577,449.508911 1233.750610,430.515167 
	C1262.380249,422.663757 1291.711792,421.359863 1321.274414,423.823090 
	C1353.620483,426.518280 1384.080933,435.391266 1412.677734,450.714478 
	C1413.390015,451.096100 1414.095947,451.489502 1415.344849,452.173035 
	C1407.860840,461.953857 1400.556152,471.500397 1393.331909,480.941620 
	C1341.115967,454.581360 1287.160522,452.406006 1232.411377,468.867554 
	C1180.601685,484.445282 1140.463989,516.396240 1112.537354,562.604248 
	C1056.729736,654.944397 1078.622192,767.449890 1151.927612,833.992554 
	C1235.720581,910.055359 1358.067993,903.913208 1435.620239,839.291077 
	C1518.613892,770.134888 1539.961548,630.624634 1470.094604,544.633606 
	C1477.816406,535.422363 1485.582153,526.158569 1493.402588,516.829590 
	C1518.272705,548.901306 1535.005371,584.457520 1542.983154,624.044250 
	C1547.141602,644.679321 1548.883667,665.592041 1547.878540,686.562012 
	C1546.028809,725.152771 1535.378052,761.370605 1516.848145,795.306213 
	C1504.704712,817.545471 1489.660034,837.595520 1471.356567,855.037720 
	C1434.201416,890.444336 1390.510498,913.307678 1339.736450,922.062317 
	C1283.461304,931.765503 1229.888306,923.351685 1179.426392,896.809998 
	C1144.277344,878.322327 1115.028809,852.763855 1091.866943,820.326965 
	C1069.671631,789.243530 1055.301147,755.037781 1048.780151,717.342896 
	C1044.803589,694.356689 1043.749023,671.289734 1046.244629,648.260620 
	C1049.869507,614.809753 1059.482910,582.995483 1076.115845,553.120239 
z"/>
<path fill="#ECF0F1" opacity="1.000000" stroke="none" 
	d="
M1287.131348,775.143982 
	C1280.625977,785.023193 1274.206665,794.527832 1268.036987,804.191833 
	C1263.417480,811.427368 1256.631592,815.185425 1248.582764,816.986633 
	C1233.233521,820.421570 1217.757202,818.956909 1202.328857,817.737305 
	C1196.531006,817.278992 1192.951782,813.087219 1189.807251,808.661011 
	C1180.859741,796.066589 1175.151855,781.888855 1170.611450,767.310852 
	C1162.642212,741.723267 1155.138428,715.988770 1147.630859,690.260010 
	C1144.768433,680.449524 1147.417969,671.752747 1154.741699,664.768860 
	C1167.393677,652.704163 1181.993164,644.345032 1199.616577,641.809387 
	C1208.978271,640.462402 1215.829834,644.324707 1219.783325,652.222351 
	C1224.138306,660.921875 1227.208740,670.259338 1230.948242,679.273499 
	C1234.818237,688.602417 1238.391724,698.090454 1242.894165,707.109924 
	C1246.744141,714.822388 1251.313721,714.988403 1256.876221,708.205688 
	C1259.917603,704.497131 1262.512573,700.397095 1265.080811,696.329712 
	C1303.540894,635.421631 1342.729736,574.981995 1386.111206,517.434021 
	C1410.143188,485.554321 1435.283325,454.501068 1460.277954,423.359528 
	C1475.714600,404.126801 1497.168091,396.262360 1520.916016,394.141418 
	C1530.953613,393.245026 1541.197266,393.207764 1551.227783,394.109772 
	C1560.381714,394.932953 1562.580078,399.796326 1557.355225,407.491882 
	C1550.175415,418.066956 1542.085571,428.034332 1534.211548,438.126251 
	C1496.639771,486.280121 1458.201660,533.784363 1421.632446,582.686768 
	C1386.982056,629.023499 1354.108398,676.695984 1320.790527,724.018433 
	C1309.119507,740.595093 1298.451172,757.877625 1287.131348,775.143982 
z"/>
<path fill="#02B5B3" opacity="1.000000" stroke="none" 
	d="
M415.137848,730.221436 
	C425.473572,710.941772 437.789093,693.638245 452.854828,678.365662 
	C482.456757,648.357422 517.797729,627.160645 556.537109,611.314148 
	C597.744751,594.458008 640.653931,584.077881 684.812805,579.017090 
	C704.478333,576.763367 724.272949,575.636230 744.460449,573.989380 
	C744.911987,613.427185 744.911987,652.873413 744.911987,693.019836 
	C742.558105,693.019836 740.621338,693.019836 738.684570,693.019836 
	C691.197327,693.019897 643.710022,693.054077 596.222961,692.957642 
	C592.272583,692.949646 589.332031,694.080322 586.486145,696.881287 
	C553.072632,729.767273 519.589111,762.582397 486.050293,795.340820 
	C464.769073,816.126831 443.367401,836.789551 422.005035,857.492371 
	C421.105286,858.364258 420.056091,859.081909 418.355591,860.452454 
	C417.895172,854.931946 417.215271,850.226196 417.160400,845.513123 
	C416.947174,827.187195 417.125641,808.855469 416.791534,790.532593 
	C416.427826,770.584656 415.656830,750.644104 415.137848,730.221436 
z"/>
<path fill="#FFFFFF" opacity="1.000000" stroke="none" 
	d="
M1376.653809,1352.926758 
	C1383.362793,1353.798096 1388.810059,1355.870117 1393.445557,1360.639282 
	C1399.183960,1366.543091 1401.507812,1379.022705 1397.493896,1388.025757 
	C1393.516846,1396.945923 1386.525269,1401.944336 1376.587036,1402.048340 
	C1363.622559,1402.183960 1350.655640,1402.081421 1337.000977,1402.081421 
	C1337.000977,1393.863403 1337.000977,1385.784668 1337.000977,1377.705933 
	C1337.000977,1369.597168 1337.000977,1361.488403 1337.000977,1352.917969 
	C1350.340576,1352.917969 1363.264893,1352.917969 1376.653809,1352.926758 
z"/>
<path fill="#FFFFFF" opacity="1.000000" stroke="none" 
	d="
M1040.698730,1404.999268 
	C1029.733643,1404.999512 1019.234436,1404.846436 1008.744019,1405.083862 
	C1005.154480,1405.164917 1004.059753,1403.726807 1004.066223,1400.519409 
	C1004.095093,1386.191772 1004.107056,1371.864136 1004.058289,1357.536743 
	C1004.046326,1354.027466 1005.393127,1352.680786 1009.095337,1352.759277 
	C1019.919495,1352.988892 1030.757812,1352.610107 1041.578979,1352.900879 
	C1054.736084,1353.254517 1061.960815,1358.002319 1065.611328,1368.594116 
	C1069.415527,1379.631836 1068.716187,1392.072021 1057.902344,1399.362549 
	C1053.196533,1402.535156 1046.797852,1403.196899 1040.698730,1404.999268 
z"/>
<path fill="#FFFFFF" opacity="1.000000" stroke="none" 
	d="
M475.608704,1594.017700 
	C484.293335,1597.282349 489.400940,1608.542236 486.671387,1618.571167 
	C485.507263,1622.848267 484.149353,1627.604004 481.343628,1630.789673 
	C475.885864,1636.986694 465.996582,1634.257568 463.123169,1626.322021 
	C460.434143,1618.895752 460.131104,1611.177124 462.264648,1603.705688 
	C463.915894,1597.923462 468.762909,1592.697632 475.608704,1594.017700 
z"/>
<path fill="#FFFFFF" opacity="1.000000" stroke="none" 
	d="
M1095.214355,1593.995361 
	C1101.118286,1594.133545 1105.384521,1596.815430 1106.867676,1601.840210 
	C1109.256104,1609.930664 1109.658936,1618.367310 1106.611206,1626.181641 
	C1105.350708,1629.413940 1101.350586,1632.560181 1097.912842,1633.720093 
	C1093.284058,1635.281982 1088.615723,1632.850586 1086.248047,1628.451050 
	C1081.071045,1618.831909 1081.794678,1608.801636 1086.535645,1599.369263 
	C1087.809326,1596.835205 1091.966309,1595.750244 1095.214355,1593.995361 
z"/>
<path fill="#FFFFFF" opacity="1.000000" stroke="none" 
	d="
M937.986633,1626.014893 
	C939.146912,1619.965332 941.864502,1617.459717 948.125610,1617.059082 
	C952.896667,1616.753784 957.702881,1616.998535 962.559204,1616.998535 
	C963.936523,1623.040527 963.175415,1628.417847 957.814087,1631.533569 
	C952.787170,1634.455200 947.010010,1635.891113 941.675476,1632.066772 
	C939.972046,1630.845581 939.190247,1628.338745 937.986633,1626.014893 
z"/>
<path fill="#FFFFFF" opacity="1.000000" stroke="none" 
	d="
M1524.887939,1616.953369 
	C1526.821167,1617.026367 1528.272461,1617.099365 1529.634766,1617.167847 
	C1532.688599,1630.767700 1520.267578,1635.417969 1511.107788,1633.836304 
	C1506.892700,1633.108643 1504.429077,1630.037476 1504.899658,1625.184692 
	C1505.286499,1621.195190 1509.000244,1617.445068 1513.912598,1617.055054 
	C1517.391113,1616.778809 1520.906860,1616.970581 1524.887939,1616.953369 
z"/>
<path fill="#FFFFFF" opacity="1.000000" stroke="none" 
	d="
M803.043274,1609.005615 
	C799.905884,1609.005615 797.261597,1609.005615 794.666077,1609.005615 
	C793.190552,1601.956421 797.221680,1594.845581 803.372498,1594.081421 
	C811.109497,1593.120483 818.242920,1594.866577 819.878174,1609.005615 
	C814.397583,1609.005615 808.966980,1609.005615 803.043274,1609.005615 
z"/>
<path fill="#FFFFFF" opacity="1.000000" stroke="none" 
	d="
M1182.437378,1596.196045 
	C1187.917480,1592.885010 1193.186646,1593.060913 1197.866211,1596.483765 
	C1202.076050,1599.563232 1203.859253,1604.117065 1202.729492,1609.738525 
	C1194.390137,1609.738525 1186.002075,1609.738525 1177.072388,1609.738525 
	C1177.096802,1604.630249 1178.216675,1600.042236 1182.437378,1596.196045 
z"/>
<path fill="#FFFFFF" opacity="1.000000" stroke="none" 
	d="
M1600.189697,1599.289551 
	C1603.702637,1593.618896 1609.039185,1593.018921 1614.168579,1594.262939 
	C1620.036743,1595.686401 1623.163330,1600.778320 1623.791870,1606.382568 
	C1624.385254,1611.673950 1623.945312,1617.242676 1622.977783,1622.508911 
	C1621.590698,1630.059326 1616.920410,1633.940552 1610.659790,1633.999146 
	C1604.651978,1634.055420 1598.713257,1629.814941 1597.646240,1622.963013 
	C1596.430054,1615.153442 1595.232300,1606.968140 1600.189697,1599.289551 
z"/>
<path fill="#FFFFFF" opacity="1.000000" stroke="none" 
	d="
M568.633728,1633.979248 
	C559.384338,1634.548706 554.148804,1628.842529 553.169617,1620.138428 
	C552.592346,1615.007568 553.214783,1609.624390 554.059570,1604.479858 
	C555.174988,1597.687622 561.198547,1593.594604 568.347595,1593.999023 
	C574.304016,1594.335938 579.420654,1599.243530 579.915222,1605.851440 
	C580.323547,1611.307861 580.668945,1616.927734 579.809509,1622.277100 
	C578.876343,1628.084595 575.190430,1632.417114 568.633728,1633.979248 
z"/>
<path fill="#024E82" opacity="1.000000" stroke="none" 
	d="
M659.064331,327.154541 
	C652.711670,331.672119 645.804016,333.248322 638.540955,333.252716 
	C565.742004,333.296722 492.942963,333.364716 420.144318,333.222351 
	C403.610382,333.190002 390.612274,323.896393 386.816528,310.384399 
	C381.569763,291.707062 386.659119,274.679871 401.045349,266.558746 
	C406.464417,263.499664 413.235413,261.355865 419.402161,261.326477 
	C492.699188,260.977234 565.998718,261.011444 639.297119,261.170197 
	C660.397949,261.215912 675.262085,278.075836 673.682983,299.221069 
	C672.838318,310.532074 669.105286,320.269196 659.064331,327.154541 
z"/>
</svg>